<?xml version="1.0" encoding="utf-8"?>
<!-- Generator: Adobe Illustrator 27.5.0, SVG Export Plug-In . SVG Version: 6.00 Build 0)  -->
<svg version="1.1" xmlns="http://www.w3.org/2000/svg" xmlns:xlink="http://www.w3.org/1999/xlink" x="0px" y="0px"
	 viewBox="0 0 500 500" style="enable-background:new 0 0 500 500;" xml:space="preserve">
<g id="Background_Complete">
	<g>
		<g>
			<g>
				<g>
					<g>
						<g>
							<g>
								<g>
									<g>
										<path style="fill:#EBEBEB;" d="M167.425,467.947c21.588-14.409,26.858-41.672,26.396-66.255
											c-0.077-4.105,0.446-8.422-1.475-12.05c-1.922-3.629-6.495-6.156-10.243-4.484c-3.108,1.387-4.509,4.91-6.281,7.815
											c-2.357,3.864-5.83,7.04-9.889,9.043c-2.668,1.316-5.954,2.095-8.545,0.634c-3.555-2.006-3.901-6.898-3.812-10.98
											c0.166-7.601,0.333-15.203,0.499-22.805c0.089-4.079,0.168-8.243-1.059-12.135c-1.225-3.891-4.009-7.53-7.924-8.676
											c-3.915-1.145-8.814,1.02-9.706,5c-0.371,1.657-0.055,3.387-0.196,5.078c-0.141,1.691-0.971,3.554-2.608,4.002
											c-1.656,0.453-3.292-0.729-4.51-1.94c-4.202-4.184-7.014-9.532-9.637-14.85c-2.624-5.317-5.166-10.757-8.967-15.308
											c-3.801-4.551-9.101-8.191-15.014-8.61c-5.915-0.419-12.278,3.093-13.863,8.806c-1.59,5.728,1.72,11.614,5.347,16.324
											c5.38,6.99,11.778,13.194,18.928,18.359c1.289,0.932,2.686,1.94,3.162,3.458c0.854,2.732-1.799,5.396-4.532,6.249
											c-3.098,0.965-6.435,0.6-9.664,0.927c-3.229,0.327-6.743,1.676-8.01,4.664c-1.757,4.146,1.709,8.568,5.14,11.482
											c6.872,5.836,14.753,10.483,23.185,13.675c3.024,1.145,6.208,2.155,8.627,4.3c2.419,2.146,3.842,5.833,2.317,8.684
											c-1.527,2.855-5.344,3.717-8.52,3.087c-3.176-0.63-6-2.379-9.018-3.555c-5.647-2.201-12.988-1.923-16.702,2.867
											c-2.441,3.149-2.72,7.581-1.57,11.395c1.15,3.814,3.551,7.12,6.109,10.175c8.94,10.678,20.463,19.339,33.569,24.045
											C142.066,471.075,154.256,472.478,167.425,467.947"/>
									</g>
								</g>
							</g>
						</g>
					</g>
				</g>
			</g>
			<g>
				<g>
					<g>
						<g>
							<g>
								<g>
									<g>
										<g>
											<path style="fill:#E0E0E0;" d="M165.73,468.422c-3.474-12.451-12.984-41.745-18.648-55.522
												c-1.429-3.438-2.842-6.836-4.234-10.185c-1.396-3.341-2.78-6.65-4.337-9.806c-3.086-6.326-6.541-12.176-9.996-17.63
												c-3.456-5.457-6.936-10.51-10.225-15.215c-3.299-4.697-6.458-9.019-9.507-12.837
												c-6.076-7.66-11.704-13.257-15.725-16.946c-2.009-1.852-3.612-3.238-4.711-4.166c-0.535-0.446-0.952-0.793-1.255-1.047
												c-0.285-0.233-0.441-0.34-0.441-0.34s0.128,0.139,0.4,0.388c0.294,0.263,0.698,0.627,1.216,1.092
												c1.071,0.958,2.649,2.372,4.628,4.248c3.966,3.739,9.53,9.366,15.547,17.042c3.021,3.826,6.152,8.155,9.43,12.86
												c3.268,4.714,6.728,9.773,10.163,15.227c3.436,5.45,6.87,11.289,9.935,17.59c1.546,3.144,2.917,6.431,4.314,9.78
												c1.391,3.348,2.801,6.744,4.23,10.181c5.66,13.769,15.176,43.031,18.671,55.443"/>
										</g>
									</g>
								</g>
							</g>
						</g>
					</g>
				</g>
			</g>
			<g>
				<g>
					<g>
						<g>
							<g>
								<g>
									<g>
										<g>
											<path style="fill:#E0E0E0;" d="M138.358,392.845c0.042,0.008,0.184-0.612,0.403-1.739
												c0.225-1.125,0.503-2.763,0.819-4.79c0.635-4.055,1.328-9.682,2.076-15.889c0.748-6.211,1.537-11.813,2.259-15.843
												c0.354-2.017,0.662-3.646,0.89-4.768c0.222-1.123,0.326-1.751,0.285-1.761c-0.041-0.01-0.223,0.599-0.518,1.708
												c-0.301,1.108-0.674,2.729-1.084,4.741c-0.835,4.021-1.694,9.634-2.444,15.849c-0.733,6.154-1.397,11.723-1.895,15.903
												c-0.252,1.946-0.463,3.564-0.625,4.813C138.377,392.205,138.315,392.837,138.358,392.845z"/>
										</g>
									</g>
								</g>
							</g>
						</g>
					</g>
				</g>
			</g>
			<g>
				<g>
					<g>
						<g>
							<g>
								<g>
									<g>
										<g>
											<path style="fill:#E0E0E0;" d="M85.369,382.25c-0.001,0.021,0.187,0.054,0.546,0.097
												c0.432,0.044,0.949,0.096,1.571,0.158c1.363,0.13,3.336,0.316,5.766,0.624c4.861,0.577,11.549,1.62,18.872,3.094
												c7.324,1.489,13.892,3.122,18.606,4.448c2.362,0.646,4.258,1.221,5.571,1.614c0.6,0.176,1.099,0.323,1.515,0.445
												c0.349,0.095,0.535,0.136,0.542,0.115c0.007-0.021-0.166-0.099-0.503-0.233c-0.406-0.151-0.893-0.335-1.48-0.554
												c-1.291-0.463-3.172-1.104-5.524-1.806c-4.694-1.434-11.264-3.139-18.606-4.632c-7.341-1.479-14.059-2.455-18.947-2.923
												c-2.441-0.253-4.425-0.374-5.796-0.431c-0.626-0.017-1.146-0.032-1.58-0.043C85.561,382.22,85.369,382.228,85.369,382.25
												z"/>
										</g>
									</g>
								</g>
							</g>
						</g>
					</g>
				</g>
			</g>
			<g>
				<g>
					<g>
						<g>
							<g>
								<g>
									<g>
										<g>
											<path style="fill:#E0E0E0;" d="M160.6,451.472c0.019,0.009,0.143-0.212,0.36-0.64c0.241-0.491,0.548-1.117,0.927-1.889
												c0.8-1.643,1.898-4.048,3.218-7.036c2.645-5.974,6.045-14.337,9.679-23.614c3.636-9.279,6.968-17.658,9.508-23.67
												c1.259-2.947,2.289-5.357,3.036-7.109c0.336-0.791,0.608-1.432,0.821-1.935c0.182-0.446,0.268-0.684,0.249-0.693
												c-0.019-0.009-0.143,0.212-0.361,0.641c-0.24,0.49-0.547,1.116-0.926,1.888c-0.8,1.643-1.897,4.048-3.217,7.036
												c-2.646,5.974-6.046,14.337-9.681,23.617c-3.635,9.275-6.967,17.653-9.507,23.666c-1.259,2.946-2.289,5.357-3.036,7.109
												c-0.336,0.791-0.608,1.433-0.821,1.936C160.666,451.225,160.58,451.463,160.6,451.472z"/>
										</g>
									</g>
								</g>
							</g>
						</g>
					</g>
				</g>
			</g>
			<g>
				<g>
					<g>
						<g>
							<g>
								<g>
									<g>
										<g>
											<path style="fill:#E0E0E0;" d="M90.332,427.956c-0.006,0.02,0.236,0.117,0.7,0.283c0.529,0.18,1.208,0.41,2.045,0.695
												c1.853,0.618,4.408,1.469,7.533,2.51c6.356,2.127,15.1,5.172,24.753,8.56c9.656,3.388,18.43,6.372,24.825,8.394
												c3.198,1.013,5.792,1.808,7.595,2.324c0.852,0.24,1.542,0.435,2.079,0.586c0.478,0.127,0.731,0.184,0.738,0.163
												c0.007-0.02-0.236-0.117-0.701-0.283c-0.528-0.18-1.205-0.41-2.044-0.695c-1.852-0.618-4.406-1.468-7.531-2.509
												c-6.357-2.126-15.101-5.174-24.757-8.562c-9.653-3.387-18.426-6.371-24.821-8.393c-3.198-1.012-5.793-1.808-7.596-2.324
												c-0.852-0.24-1.541-0.434-2.079-0.586C90.592,427.992,90.339,427.936,90.332,427.956z"/>
										</g>
									</g>
								</g>
							</g>
						</g>
					</g>
				</g>
			</g>
		</g>
		<g>
			<g>
				<path style="fill:#EBEBEB;" d="M382.169,279.398c0,0-10.262-5.274-19.409,18.892c-9.146,24.165-12.114,37.848-12.114,37.848
					s-2.555,5.134-6.193,2.362c-3.638-2.772-9.126-11.166-14.548-8.95c-5.623,2.298-6.823,8.988-4.669,18.387
					c2.154,9.4,6.117,30.166,6.468,32.045c0.345,1.845-0.419,4.703-3.2,3.211c-2.781-1.491-19.477-16.421-26.087-8.074
					c-6.61,8.346,3.693,33.546,4.766,36.322c1.073,2.776,0.648,4.059-0.632,4.917c-1.281,0.857-6.42-4.69-11.342-8.742
					c-4.923-4.052-11.341-7.887-14.751-2.752c-3.41,5.135-2.52,24.795,19.545,54.461l11.124,13.077l17.01-2.831
					c36.034-8.278,49.458-22.668,50.192-28.788c0.733-6.121-6.639-7.362-13.014-7.469c-6.375-0.107-13.884,0.784-14.303-0.699
					c-0.419-1.483,0.089-2.735,2.707-4.153c2.617-1.418,26.8-13.921,27.18-24.562c0.38-10.64-22.012-10.1-25.095-10.768
					c-3.084-0.668-1.813-3.339-0.354-4.52c1.486-1.203,17.968-14.442,25.702-20.202c7.734-5.759,11.159-11.63,8.368-17.025
					c-2.691-5.203-12.312-2.371-16.879-2.62c-4.567-0.249-3.184-5.814-3.184-5.814s6.613-12.341,15.319-36.668
					c8.706-24.328-2.822-26.977-2.822-26.977"/>
			</g>
			<g>
				<g>
					<path style="fill:#E0E0E0;" d="M311.504,468.68c6.464-17.841,15.601-42.415,25.781-69.527
						c10.177-27.103,19.368-51.651,25.922-69.458c3.262-8.892,5.904-16.094,7.74-21.096c0.91-2.474,1.619-4.402,2.109-5.735
						c0.241-0.638,0.427-1.132,0.561-1.487c0.129-0.334,0.208-0.5,0.208-0.5s-0.045,0.179-0.157,0.519
						c-0.122,0.359-0.292,0.859-0.511,1.505c-0.468,1.34-1.146,3.281-2.014,5.769c-1.755,5.008-4.346,12.236-7.581,21.156
						c-6.464,17.841-15.6,42.412-25.777,69.516c-10.18,27.113-19.372,51.663-25.926,69.47"/>
				</g>
			</g>
			<g>
				<g>
					<path style="fill:#E0E0E0;" d="M336.994,341.452c0.034-0.014,0.231,0.382,0.558,1.11c0.33,0.727,0.776,1.792,1.315,3.112
						c1.073,2.643,2.462,6.332,3.921,10.43c1.424,4.047,2.712,7.706,3.697,10.505c0.452,1.259,0.833,2.321,1.14,3.175
						c0.272,0.748,0.407,1.169,0.373,1.184c-0.034,0.014-0.233-0.38-0.566-1.106c-0.328-0.728-0.775-1.793-1.3-3.12
						c-1.047-2.655-2.387-6.36-3.846-10.458c-1.452-4.034-2.766-7.682-3.77-10.474c-0.459-1.257-0.845-2.318-1.156-3.171
						C337.091,341.888,336.96,341.466,336.994,341.452z"/>
				</g>
			</g>
			<g>
				<g>
					<path style="fill:#E0E0E0;" d="M349.598,371.099c-0.056-0.136,7.423-3.335,16.702-7.143c9.282-3.809,16.85-6.786,16.906-6.65
						c0.056,0.136-7.421,3.334-16.704,7.143C357.223,368.258,349.654,371.235,349.598,371.099z"/>
				</g>
			</g>
			<g>
				<g>
					<path style="fill:#E0E0E0;" d="M332.09,412.023c-0.003-0.037,0.444-0.105,1.253-0.196c0.918-0.098,2.065-0.22,3.426-0.365
						c2.891-0.312,6.883-0.76,11.269-1.415c4.389-0.646,8.34-1.368,11.196-1.914c1.345-0.256,2.477-0.471,3.384-0.644
						c0.801-0.148,1.247-0.213,1.255-0.177c0.008,0.036-0.423,0.169-1.21,0.379c-0.788,0.21-1.932,0.493-3.353,0.81
						c-2.842,0.642-6.794,1.425-11.195,2.073c-4.398,0.657-8.408,1.047-11.313,1.263c-1.453,0.102-2.63,0.172-3.445,0.196
						C332.543,412.062,332.092,412.06,332.09,412.023z"/>
				</g>
			</g>
			<g>
				<g>
					<path style="fill:#E0E0E0;" d="M314.787,387.717c0.03-0.022,0.303,0.293,0.773,0.881c0.53,0.686,1.181,1.528,1.948,2.521
						c1.626,2.142,3.843,5.123,6.265,8.435c2.423,3.313,4.592,6.329,6.14,8.528c0.714,1.032,1.319,1.908,1.811,2.62
						c0.418,0.626,0.635,0.982,0.605,1.004c-0.03,0.022-0.303-0.293-0.773-0.881c-0.53-0.686-1.181-1.527-1.948-2.52
						c-1.626-2.142-3.843-5.123-6.266-8.436c-2.422-3.312-4.591-6.328-6.139-8.527c-0.714-1.032-1.319-1.908-1.811-2.621
						C314.974,388.095,314.757,387.738,314.787,387.717z"/>
				</g>
			</g>
			<g>
				<g>
					<path style="fill:#E0E0E0;" d="M294.74,421.881c0.03-0.022,0.376,0.384,0.978,1.138c0.654,0.839,1.497,1.921,2.509,3.221
						c2.1,2.734,4.971,6.532,8.115,10.747c3.146,4.216,5.969,8.051,7.992,10.842c0.957,1.34,1.754,2.457,2.373,3.322
						c0.551,0.792,0.841,1.24,0.812,1.262c-0.029,0.022-0.376-0.384-0.978-1.138c-0.654-0.839-1.497-1.921-2.509-3.221
						c-2.099-2.734-4.971-6.532-8.116-10.748c-3.145-4.215-5.968-8.049-7.99-10.84c-0.957-1.34-1.755-2.456-2.373-3.322
						C295.001,422.352,294.711,421.903,294.74,421.881z"/>
				</g>
			</g>
			<g>
				<g>
					<path style="fill:#E0E0E0;" d="M317.18,451.528c-0.004-0.037,0.559-0.138,1.581-0.289c1.116-0.16,2.572-0.368,4.327-0.619
						c3.652-0.526,8.694-1.273,14.237-2.255c5.546-0.973,10.541-1.987,14.153-2.745c1.735-0.363,3.175-0.664,4.278-0.895
						c1.012-0.207,1.575-0.305,1.584-0.27c0.009,0.036-0.538,0.202-1.536,0.472c-0.997,0.27-2.446,0.637-4.244,1.061
						c-3.594,0.854-8.587,1.927-14.142,2.902c-5.552,0.983-10.612,1.672-14.28,2.103c-1.835,0.211-3.322,0.367-4.352,0.451
						C317.755,451.534,317.184,451.565,317.18,451.528z"/>
				</g>
			</g>
		</g>
	</g>
	<g id="XMLID_27_">
		<path id="XMLID_33_" style="fill:#EBEBEB;" d="M68.372,126.45L68.372,126.45c-13.332,0-24.14-10.808-24.14-24.14l0,0
			c0-13.332,10.808-24.14,24.14-24.14l0,0c13.332,0,24.14,10.808,24.14,24.14l0,0C92.511,115.643,81.704,126.45,68.372,126.45z"/>
		<g id="XMLID_28_">
			<g id="XMLID_30_">
				<rect id="XMLID_32_" x="57.426" y="96.93" style="fill:#FFFFFF;" width="4.996" height="16.14"/>
				<path id="XMLID_31_" style="fill:#FFFFFF;" d="M59.9,94.816c1.632,0,2.954-1.335,2.954-2.979c0-1.644-1.322-2.978-2.954-2.978
					c-1.632,0-2.954,1.334-2.954,2.978C56.945,93.482,58.267,94.816,59.9,94.816z"/>
			</g>
			<path id="XMLID_29_" style="fill:#FFFFFF;" d="M70.408,104.597c0-2.269,1.044-3.621,3.044-3.621c1.837,0,2.72,1.298,2.72,3.621
				c0,2.325,0,8.472,0,8.472h4.972c0,0,0-5.896,0-10.219c0-4.323-2.451-6.414-5.872-6.414c-3.424,0-4.864,2.667-4.864,2.667V96.93
				h-4.793v16.14h4.793C70.408,113.07,70.408,107.084,70.408,104.597z"/>
		</g>
	</g>
	<g id="XMLID_1424_">
		<path id="XMLID_1430_" style="fill:#F5F5F5;" d="M442.663,133.405L442.663,133.405c-12.422,0-22.492-10.07-22.492-22.492l0,0
			c0-12.422,10.07-22.492,22.492-22.492l0,0c12.422,0,22.492,10.07,22.492,22.492l0,0
			C465.155,123.335,455.085,133.405,442.663,133.405z"/>
		<path id="XMLID_1425_" style="fill:#FFFFFF;" d="M442.663,97.763c-7.262,0-13.15,5.888-13.15,13.15
			c0,7.263,5.888,13.15,13.15,13.15c7.263,0,13.15-5.887,13.15-13.15C455.813,103.651,449.926,97.763,442.663,97.763z
			 M448.712,116.765c-0.263,0.395-0.723,0.526-1.118,0.263c-3.09-1.907-6.969-2.301-11.572-1.249
			c-0.46,0.131-0.855-0.197-0.986-0.592c-0.132-0.46,0.197-0.855,0.592-0.986c4.997-1.118,9.336-0.657,12.755,1.446
			C448.843,115.845,448.909,116.37,448.712,116.765z M450.29,113.149c-0.329,0.46-0.92,0.658-1.381,0.329
			c-3.551-2.17-8.942-2.827-13.084-1.512c-0.526,0.131-1.118-0.132-1.249-0.658c-0.131-0.526,0.132-1.118,0.658-1.249
			c4.8-1.446,10.717-0.723,14.794,1.775C450.421,112.031,450.619,112.689,450.29,113.149z M450.421,109.467
			c-4.208-2.498-11.243-2.761-15.254-1.512c-0.657,0.197-1.315-0.197-1.512-0.789c-0.197-0.658,0.197-1.315,0.789-1.512
			c4.668-1.381,12.361-1.118,17.227,1.775c0.592,0.329,0.789,1.118,0.46,1.71C451.802,109.598,451.013,109.796,450.421,109.467z"/>
	</g>
	<g id="XMLID_622_">
		<path id="XMLID_633_" style="fill:#E0E0E0;" d="M416.177,234.854L416.177,234.854c-12.286,0-22.246-9.96-22.246-22.246l0,0
			c0-12.286,9.96-22.246,22.246-22.246l0,0c12.286,0,22.246,9.96,22.246,22.246l0,0
			C438.423,224.894,428.463,234.854,416.177,234.854z"/>
		<g id="XMLID_623_">
			<path id="XMLID_629_" style="fill:#FFFFFF;" d="M412.856,219.989c0.676-0.14,1.263-0.401,1.76-0.782
				c0.44-0.331,0.809-0.739,1.103-1.225c0.462-0.734,0.693-1.561,0.693-2.485c0-0.894-0.203-1.655-0.606-2.282
				c-0.405-0.627-1.005-1.085-1.8-1.375c0.523-0.267,0.919-0.563,1.189-0.887c0.48-0.577,0.721-1.342,0.721-2.293
				c0-0.923-0.239-1.716-0.716-2.378c-0.792-1.077-2.138-1.63-4.036-1.659h-7.529v15.577h7.02
				C411.445,220.201,412.18,220.13,412.856,219.989z M406.742,207.329h3.389c0.746,0,1.36,0.081,1.841,0.244
				c0.558,0.232,0.837,0.711,0.837,1.437c0,0.655-0.211,1.112-0.634,1.369c-0.421,0.257-0.971,0.386-1.647,0.386h-3.786V207.329z
				 M406.742,217.496v-4.153h3.834c0.67,0.007,1.188,0.094,1.557,0.264c0.661,0.303,0.992,0.859,0.992,1.669
				c0,0.958-0.341,1.607-1.024,1.945c-0.376,0.183-0.902,0.274-1.577,0.274H406.742z"/>
			<g id="XMLID_624_">
				<path id="XMLID_626_" style="fill:#FFFFFF;" d="M419.051,219.175c1.172,0.945,2.524,1.417,4.057,1.417
					c1.858,0,3.303-0.56,4.333-1.68c0.664-0.705,1.036-1.399,1.117-2.082h-3.075c-0.179,0.338-0.386,0.602-0.62,0.792
					c-0.429,0.353-0.986,0.529-1.672,0.529c-0.647,0-1.2-0.145-1.66-0.434c-0.757-0.465-1.158-1.275-1.205-2.431h8.389
					c0.015-0.994-0.018-1.756-0.099-2.286c-0.14-0.903-0.446-1.697-0.918-2.381c-0.522-0.776-1.187-1.345-1.991-1.704
					c-0.802-0.36-1.706-0.539-2.709-0.539c-1.687,0-3.06,0.532-4.118,1.597c-1.058,1.064-1.587,2.594-1.587,4.589
					C417.293,216.692,417.879,218.229,419.051,219.175z M421.202,211.517c0.426-0.438,1.025-0.658,1.797-0.658
					c0.711,0,1.307,0.207,1.787,0.62c0.48,0.414,0.748,1.021,0.802,1.82H420.4C420.509,212.55,420.777,211.956,421.202,211.517z"/>
				<rect id="XMLID_625_" x="419.418" y="205.519" style="fill:#FFFFFF;" width="6.769" height="1.572"/>
			</g>
		</g>
	</g>
	<g id="XMLID_3_">
		<path id="XMLID_26_" style="fill:#EBEBEB;" d="M122.618,244.034L122.618,244.034c-9.903,0-17.932-8.028-17.932-17.932l0,0
			c0-9.903,8.028-17.932,17.932-17.932h0c9.903,0,17.932,8.028,17.932,17.932l0,0C140.55,236.005,132.522,244.034,122.618,244.034z"
			/>
		<path id="XMLID_9_" style="fill:#FFFFFF;" d="M122.618,214.671c-6.313,0-11.431,5.118-11.431,11.432
			c0,6.313,5.118,11.431,11.431,11.431c6.314,0,11.431-5.118,11.431-11.431C134.05,219.789,128.932,214.671,122.618,214.671z
			 M122.618,216.659c2.168,0,4.161,0.742,5.757,1.974c-1.147,1.48-2.732,2.65-4.75,3.505c-0.968-1.773-2.074-3.501-3.322-5.18
			C121.044,216.77,121.818,216.659,122.618,216.659z M118.358,217.686c1.268,1.66,2.392,3.371,3.369,5.126
			c-2.315,0.681-5.078,1.031-8.273,1.054C114.114,221.165,115.933,218.92,118.358,217.686z M113.175,226.102
			c0-0.081,0.011-0.161,0.013-0.243c3.665-0.006,6.828-0.426,9.477-1.26c0.222,0.452,0.435,0.907,0.638,1.365
			c-3.219,1.006-5.872,3.068-7.941,6.173C113.999,230.499,113.175,228.395,113.175,226.102z M122.618,235.545
			c-2.185,0-4.193-0.752-5.795-2.003c1.875-2.943,4.271-4.857,7.237-5.742c0.883,2.305,1.533,4.677,1.947,7.106
			C124.953,235.314,123.814,235.545,122.618,235.545z M127.86,233.951c-0.417-2.241-1.029-4.432-1.828-6.569
			c1.786-0.252,3.753-0.187,5.905,0.187C131.52,230.223,130.005,232.515,127.86,233.951z M125.269,225.5
			c-0.232-0.536-0.473-1.071-0.731-1.6c2.2-0.953,3.968-2.247,5.286-3.888c1.285,1.519,2.092,3.447,2.211,5.558
			C129.582,225.168,127.326,225.146,125.269,225.5z"/>
	</g>
	<polygon style="fill:#F5F5F5;" points="86.65,158.848 90.426,165.753 97.331,169.529 90.426,173.306 86.65,180.21 82.873,173.306 
		75.968,169.529 82.873,165.753 	"/>
	<polygon style="fill:#EBEBEB;" points="365.076,202.283 367.908,207.461 373.087,210.294 367.908,213.126 365.076,218.305 
		362.244,213.126 357.065,210.294 362.244,207.461 	"/>
	<polygon style="fill:#F5F5F5;" points="385.574,38.63 387.462,42.083 390.914,43.971 387.462,45.859 385.574,49.312 
		383.685,45.859 380.233,43.971 383.685,42.083 	"/>
	<polygon style="fill:#E0E0E0;" points="165.73,229.956 167.008,232.292 169.345,233.57 167.008,234.848 165.73,237.184 
		164.453,234.848 162.116,233.57 164.453,232.292 	"/>
	<polygon style="fill:#E0E0E0;" points="399.519,159.35 400.797,161.687 403.133,162.965 400.797,164.243 399.519,166.579 
		398.241,164.243 395.905,162.965 398.241,161.687 	"/>
	<polygon style="fill:#E0E0E0;" points="128.177,81.998 129.455,84.334 131.792,85.612 129.455,86.89 128.177,89.227 126.899,86.89 
		124.563,85.612 126.899,84.334 	"/>
	<polygon style="fill:#E0E0E0;" points="405.27,60.696 407.938,65.573 412.816,68.241 407.938,70.909 405.27,75.786 402.603,70.909 
		397.725,68.241 402.603,65.573 	"/>
</g>
<g id="Background_Simple" style="display:none;">
	<path style="display:inline;fill:#EBEBEB;" d="M396.272,246.304c-7.464-11.585-19.483-25.335-46.017-27.981
		c-22.698-2.263-45.26,2.221-63.935,15.32c-18.674,13.099-35.595,29.652-57.164,37.074c-18.753,6.452-39.114,5.321-58.925,6.225
		c-19.812,0.904-38.405,2.835-52.819,16.456c-15.304,14.463-21.207,38.565-17.572,59.306c3.635,20.741,9.902,28.841,21.175,46.626
		c4.713,7.437,13.071,16.618,20.591,21.197c9.026,5.497,18.145,7.511,26.94,9.518c29.317,4.848,58.828,9.71,88.539,9.214
		c29.711-0.497,59.952-6.664,85.153-22.409c27.645-17.272,53.64-47.19,64.089-78.068
		C416.626,308.337,413.928,273.706,396.272,246.304z"/>
</g>
<g id="Floor">
	<g>
		<path style="fill:#263238;" d="M441.021,469.246c0,0.144-85.53,0.26-191.012,0.26c-105.518,0-191.03-0.116-191.03-0.26
			c0-0.144,85.511-0.26,191.03-0.26C355.491,468.986,441.021,469.102,441.021,469.246z"/>
	</g>
</g>
<g id="Plants">
	<g>
		<g>
			<g>
				<g>
					<g>
						<g>
							<g>
								<g>
									<path style="fill:#E8505B;" d="M122.474,425.385c2.064,2.888,6.011,1.887,7.828,0.095c1.817-1.793,2.568-4.372,3.25-6.832
										c1.559-5.62,3.128-11.515,1.874-17.211c-0.375-1.703-1.029-3.398-2.241-4.652c-1.211-1.254-3.062-1.99-4.744-1.528
										c-1.99,0.546-3.211,2.512-4.089,4.379c-2.582,5.489-3.918,11.56-3.88,17.625
										C120.491,420.094,120.853,423.061,122.474,425.385"/>
								</g>
							</g>
						</g>
					</g>
				</g>
			</g>
		</g>
		<g>
			<g>
				<g>
					<g>
						<g>
							<g>
								<g>
									<path style="fill:#E8505B;" d="M130.243,440.035c3.313-1.75,7.231-2.011,10.933-1.436c1.989,0.309,4.065,0.883,5.43,2.362
										c1.366,1.479,1.647,4.101,0.108,5.397c-0.916,0.772-2.203,0.9-3.401,0.898c-2.894-0.006-6.109-0.484-8.404,1.279
										c-1.309,1.006-2.171,2.666-3.743,3.169c-1.538,0.493-3.288-0.401-4.119-1.785c-0.831-1.384-0.876-3.125-0.509-4.697
										C126.538,445.222,126.906,441.798,130.243,440.035z"/>
								</g>
							</g>
						</g>
					</g>
				</g>
			</g>
		</g>
		<g>
			<g>
				<g>
					<g>
						<g>
							<g>
								<g>
									<path style="fill:#E8505B;" d="M116.923,429.61c2.185-2.645,2.568-6.475,1.552-9.752c-1.015-3.277-3.264-6.051-5.847-8.309
										c-3.028-2.647-6.578-4.695-10.385-5.993c-1.498-0.511-3.077-0.91-4.651-0.744c-1.574,0.166-3.153,0.987-3.874,2.396
										c-1.067,2.083-0.001,4.587,1.146,6.627c2.02,3.594,4.324,7.029,6.882,10.263c2.058,2.601,4.411,5.164,7.521,6.318
										c3.109,1.155,6.326,0.984,7.948-1.18"/>
								</g>
							</g>
						</g>
					</g>
				</g>
			</g>
		</g>
		<g>
			<g>
				<g>
					<g>
						<g>
							<g>
								<g>
									<g>
										<path style="fill:#263238;" d="M122.759,469.246c0.038,0.002,0.095-0.47,0.171-1.323c0.084-0.962,0.19-2.171,0.316-3.609
											c0.153-1.519,0.358-3.327,0.76-5.297c0.401-1.965,1.038-4.097,1.862-6.261c0.854-2.151,1.902-4.109,3.133-5.679
											c1.223-1.577,2.651-2.723,3.998-3.389c1.342-0.679,2.549-0.961,3.383-1.09c0.842-0.095,1.314-0.166,1.314-0.203
											c0-0.038-0.473-0.039-1.339-0.008c-0.857,0.066-2.115,0.295-3.53,0.955c-1.42,0.646-2.936,1.811-4.218,3.42
											c-1.293,1.603-2.379,3.604-3.248,5.794c-0.838,2.202-1.465,4.355-1.847,6.363c-0.381,2.004-0.546,3.831-0.651,5.362
											c-0.1,1.533-0.131,2.773-0.144,3.63C122.707,468.77,122.722,469.244,122.759,469.246z"/>
									</g>
								</g>
							</g>
						</g>
					</g>
				</g>
			</g>
		</g>
		<g>
			<g>
				<g>
					<g>
						<g>
							<g>
								<g>
									<g>
										<path style="fill:#263238;" d="M122.981,466.469c0.019-0.001,0.028-0.212,0.029-0.614
											c-0.006-0.46-0.013-1.041-0.022-1.753c-0.019-1.521-0.039-3.723,0.016-6.443c0.082-5.439,0.478-12.949,1.303-21.208
											c0.831-8.261,1.967-15.697,3.016-21.033c0.247-1.337,0.498-2.542,0.734-3.595c0.225-1.057,0.417-1.968,0.604-2.705
											c0.16-0.694,0.29-1.259,0.393-1.708c0.084-0.392,0.119-0.601,0.101-0.606c-0.018-0.005-0.089,0.194-0.208,0.577
											c-0.129,0.443-0.293,1-0.493,1.685c-0.219,0.731-0.441,1.636-0.695,2.689c-0.265,1.05-0.543,2.252-0.815,3.587
											c-1.149,5.33-2.348,12.776-3.181,21.055c-0.826,8.276-1.162,15.808-1.145,21.259c-0.006,2.726,0.073,4.931,0.157,6.453
											c0.05,0.712,0.091,1.291,0.124,1.751C122.935,466.261,122.962,466.47,122.981,466.469z"/>
									</g>
								</g>
							</g>
						</g>
					</g>
				</g>
			</g>
		</g>
		<g>
			<g>
				<g>
					<g>
						<g>
							<g>
								<g>
									<g>
										<path style="fill:#263238;" d="M122.877,451.95c0.037-0.002,0.025-0.652-0.031-1.831
											c-0.079-1.176-0.257-2.876-0.609-4.956c-0.371-2.075-0.886-4.539-1.683-7.213c-0.76-2.684-1.796-5.581-3.105-8.524
											c-2.565-5.924-6.018-10.754-9.011-13.737c-0.703-0.793-1.482-1.362-2.107-1.921c-0.323-0.268-0.609-0.535-0.899-0.746
											c-0.292-0.197-0.564-0.38-0.816-0.551c-0.982-0.658-1.531-1.004-1.551-0.972c-0.086,0.12,2.198,1.435,5.097,4.459
											c2.887,3.018,6.245,7.816,8.788,13.69c1.299,2.918,2.341,5.787,3.122,8.445c0.818,2.648,1.369,5.086,1.786,7.141
											c0.398,2.059,0.633,3.741,0.776,4.905C122.755,451.305,122.839,451.952,122.877,451.95z"/>
									</g>
								</g>
							</g>
						</g>
					</g>
				</g>
			</g>
		</g>
	</g>
	<g>
		<path style="fill:#455A64;" d="M379.008,411.75c2.41,1.726,3.837,4.604,4.232,7.542c0.395,2.938-0.158,5.936-1.104,8.746
			c-1.83,5.436-6.206,10.379-10.573,14.098c-3.811-5.104-3.354-12.48-2.887-16.206C369.415,420.039,374.326,409.841,379.008,411.75"
			/>
		<path style="fill:#455A64;" d="M375.309,453.163c-0.312-3.297,1.507-6.609,4.262-8.447c2.755-1.837,6.306-2.28,9.54-1.57
			c1.496,0.328,3.068,0.999,3.758,2.365c0.646,1.277,0.327,2.889-0.507,4.053c-0.833,1.164-2.102,1.943-3.409,2.528
			C384.474,454.098,379.769,455.216,375.309,453.163"/>
		<g>
			<path style="fill:#263238;" d="M365.581,468.279c-0.04-0.019,0.1-0.424,0.391-1.141c0.291-0.716,0.731-1.745,1.315-3
				c1.176-2.493,2.904-5.968,5.676-9.223c2.779-3.257,6.197-5.351,8.871-6.175c1.334-0.426,2.46-0.605,3.238-0.646
				c0.779-0.045,1.209-0.005,1.209,0.032c0.014,0.13-1.733,0.098-4.299,1.043c-2.561,0.911-5.823,2.993-8.533,6.165
				c-2.708,3.177-4.482,6.572-5.756,9.005C366.434,466.789,365.667,468.319,365.581,468.279z"/>
		</g>
		<g>
			<path style="fill:#263238;" d="M376.148,419.95c0.044,0.008-0.041,0.71-0.23,1.974c-0.188,1.264-0.491,3.089-0.89,5.339
				c-0.796,4.5-1.998,10.699-3.493,17.51c-1.498,6.813-3.005,12.945-4.168,17.365c-0.581,2.21-1.07,3.993-1.429,5.22
				c-0.358,1.227-0.575,1.9-0.618,1.889c-0.043-0.011,0.093-0.705,0.376-1.951c0.316-1.354,0.731-3.127,1.231-5.267
				c1.05-4.444,2.485-10.587,3.981-17.393c1.493-6.804,2.765-12.982,3.674-17.457c0.443-2.152,0.81-3.936,1.09-5.298
				C375.936,420.63,376.104,419.942,376.148,419.95z"/>
		</g>
		<path style="fill:#455A64;" d="M366.001,454.287c0.531-6.962-2.549-14.101-7.978-18.491c-1.382-1.118-3.304-2.09-4.862-1.234
			c-1.561,0.857-1.769,3.012-1.524,4.776c1.019,7.34,6.916,13.751,14.145,15.379"/>
		<g>
			<path style="fill:#263238;" d="M357.346,441.131c0.027-0.035,0.366,0.195,0.958,0.645c0.301,0.22,0.658,0.503,1.035,0.873
				c0.382,0.365,0.844,0.757,1.274,1.266c0.919,0.967,1.881,2.24,2.809,3.743c0.895,1.521,1.737,3.281,2.374,5.221
				c0.612,1.948,0.953,3.87,1.11,5.628c0.12,1.762,0.08,3.357-0.104,4.678c-0.053,0.665-0.2,1.253-0.299,1.771
				c-0.092,0.521-0.217,0.958-0.333,1.312c-0.22,0.711-0.361,1.094-0.403,1.082c-0.122-0.033,0.361-1.604,0.584-4.211
				c0.123-1.302,0.115-2.862-0.034-4.58c-0.186-1.714-0.536-3.583-1.133-5.484c-0.621-1.891-1.425-3.614-2.272-5.116
				c-0.879-1.483-1.781-2.756-2.639-3.743C358.574,442.225,357.266,441.228,357.346,441.131z"/>
		</g>
	</g>
</g>
<g id="Social_Idea">
	<g>
		<path style="fill:#E8505B;" d="M314.083,241.435c-1.179-3.529-6.364-4.873-9.109-2.362l-1.096,1.377
			c-1.832,3.238,0.641,7.99,4.345,8.347C311.926,249.155,315.262,244.964,314.083,241.435z"/>
		<g style="opacity:0.7;">
			<path style="fill:#FFFFFF;" d="M314.444,241.308c-1.259-3.769-6.797-5.205-9.729-2.523l-1.171,1.471
				c-1.957,3.459,0.685,8.534,4.641,8.916C312.14,249.553,315.703,245.077,314.444,241.308z"/>
		</g>
	</g>
	<g>
		<path style="fill:#E8505B;" d="M334.855,213.854c-2.027-6.068-10.943-8.38-15.663-4.061l-1.885,2.368
			c-3.15,5.569,1.103,13.739,7.471,14.353C331.146,227.128,336.882,219.922,334.855,213.854z"/>
		<g style="opacity:0.7;">
			<path style="fill:#FFFFFF;" d="M335.106,213.772c-2.083-6.223-11.244-8.594-16.094-4.165l-1.937,2.429
				c-3.236,5.711,1.133,14.089,7.676,14.719C331.295,227.385,337.188,219.995,335.106,213.772z"/>
		</g>
	</g>
	<g>
		<g>
			<path style="fill:#E8505B;" d="M285.07,22.744c-18.016-9.48-44.374-0.218-55.365,19.232c-16.007-6.877-35.499-4.905-49.805,5.04
				c-14.305,9.944-22.945,27.528-22.075,44.929c-21.223,8.011-37.057,28.739-39.204,51.323
				c-2.146,22.583,9.499,45.923,28.833,57.789c19.334,11.865,45.418,11.68,64.581-0.46c6.712,20.907,31.577,32.672,53.092,28.289
				c21.516-4.383,38.7-22.097,46.676-42.555c19.18,10.529,45.67,2.502,57.455-15.933c11.785-18.435,8.86-44.352-5.202-61.114
				c-2.267-2.703-4.87-5.346-5.77-8.758c-1.086-4.115,0.532-8.388,1.661-12.491c5.472-19.883-1.378-42.624-16.921-56.176
				S304.022,14.616,285.07,22.744"/>
			<g style="opacity:0.7;">
				<path style="fill:#FFFFFF;" d="M285.056,22.337c-18.251-9.561-44.499-0.96-55.634,18.656
					c-16.217-6.936-36.42-4.207-50.912,5.822s-23.245,27.762-22.364,45.311c-21.501,8.079-37.542,28.984-39.717,51.759
					c-2.174,22.775,9.623,46.314,29.211,58.28c19.587,11.966,46.012,11.779,65.426-0.464c6.799,21.084,31.99,32.95,53.787,28.53
					c21.797-4.42,39.206-22.285,47.287-42.917c19.431,10.619,46.267,2.523,58.207-16.069c11.939-18.592,8.975-44.729-5.271-61.634
					c-2.297-2.726-4.933-5.392-5.845-8.832c-1.1-4.15,0.539-8.459,1.683-12.597c5.543-20.052-1.397-42.986-17.143-56.654
					S304.257,14.139,285.056,22.337"/>
			</g>
		</g>
		<g>
			<g>
				<path style="fill:#E8505B;" d="M295.524,124.177c0-23.41-18.978-42.388-42.388-42.388c-23.41,0-42.388,18.978-42.388,42.388
					c0,16.949,9.951,31.569,24.327,38.351c0,5.023,0,10.694,0,10.694h37.152c0,0,0.224-6.002,0.307-11.359
					C286.184,154.822,295.524,140.595,295.524,124.177z"/>
				<g>
					<path style="fill:#263238;" d="M258.792,173.046c0,0,0.005-0.178,0.042-0.523c0.041-0.365,0.099-0.873,0.173-1.529
						c0.164-1.343,0.402-3.323,0.777-5.866c0.377-2.542,0.877-5.65,1.686-9.214c0.826-3.555,1.95-7.59,3.846-11.796
						c0.949-2.101,2.048-4.253,3.486-6.343c0.739-1.023,1.663-2.019,2.898-2.603c1.233-0.59,2.776-0.59,4.025,0.131
						c0.618,0.358,1.142,0.959,1.342,1.677c0.225,0.707,0.152,1.512-0.177,2.175c-0.655,1.342-1.904,2.275-3.274,2.822
						c-2.799,0.98-6.025,0.733-8.812-0.624c-2.797-1.354-5.03-3.965-5.985-7.072c-0.458-1.544-0.707-3.236-0.25-4.89
						c0.4-1.644,1.999-3.115,3.851-2.946c0.918,0.067,1.752,0.695,2.158,1.495c0.424,0.796,0.533,1.737,0.34,2.614
						c-0.409,1.769-1.685,3.092-2.98,4.212c-2.671,2.208-6.31,3.435-9.88,2.867c-3.546-0.567-6.731-2.912-8.197-6.11
						c-0.768-1.573-0.953-3.482-0.287-5.134c0.335-0.815,0.982-1.576,1.859-1.875c0.864-0.333,1.84-0.175,2.61,0.24
						c0.779,0.411,1.411,1.088,1.789,1.86c0.393,0.77,0.574,1.613,0.646,2.442c0.12,1.661-0.116,3.312-0.644,4.844
						c-1.034,3.073-3.228,5.666-5.975,7.108c-2.735,1.46-5.912,1.846-8.771,1.206c-1.412-0.312-2.857-0.877-3.816-2.024
						c-0.938-1.12-1.202-2.893-0.236-4.083c0.481-0.572,1.204-0.877,1.905-0.931c0.705-0.05,1.405,0.092,2.022,0.393
						c1.259,0.621,2.027,1.789,2.595,2.909c1.065,2.299,1.921,4.533,2.786,6.666c3.39,8.543,5.795,15.583,7.406,20.461
						c0.805,2.44,1.399,4.344,1.798,5.636c0.189,0.632,0.336,1.122,0.441,1.474c0.097,0.333,0.133,0.507,0.133,0.507
						s-0.071-0.164-0.184-0.491c-0.117-0.348-0.28-0.833-0.49-1.458c-0.439-1.302-1.075-3.187-1.89-5.603
						c-1.669-4.856-4.125-11.872-7.555-20.388c-0.871-2.116-1.751-4.376-2.803-6.621c-0.551-1.085-1.3-2.174-2.417-2.714
						c-1.083-0.534-2.603-0.53-3.415,0.438c-0.798,0.963-0.59,2.542,0.246,3.522c0.855,1.024,2.207,1.566,3.573,1.862
						c2.752,0.609,5.819,0.228,8.446-1.183c2.634-1.39,4.739-3.886,5.73-6.845c0.505-1.472,0.728-3.066,0.612-4.642
						c-0.113-1.549-0.762-3.17-2.172-3.894c-0.676-0.361-1.488-0.485-2.196-0.209c-0.719,0.245-1.258,0.867-1.559,1.592
						c-0.592,1.483-0.446,3.24,0.283,4.719c1.383,3.026,4.435,5.277,7.807,5.812c3.397,0.543,6.901-0.629,9.468-2.751
						c1.254-1.075,2.455-2.359,2.808-3.922c0.17-0.763,0.071-1.585-0.289-2.262c-0.351-0.679-1.01-1.171-1.757-1.229
						c-0.743-0.074-1.516,0.206-2.107,0.68c-0.599,0.469-0.996,1.157-1.209,1.898c-0.421,1.496-0.198,3.125,0.241,4.603
						c0.909,2.978,3.049,5.488,5.722,6.788c2.658,1.311,5.797,1.545,8.434,0.628c1.283-0.502,2.459-1.398,3.036-2.582
						c0.613-1.177,0.138-2.682-0.982-3.294c-1.094-0.642-2.517-0.657-3.626-0.124c-1.141,0.533-2.027,1.469-2.75,2.462
						c-1.414,2.035-2.527,4.184-3.476,6.258c-1.904,4.165-3.049,8.174-3.898,11.711c-0.833,3.547-1.362,6.645-1.769,9.179
						c-0.377,2.523-0.67,4.49-0.873,5.849c-0.096,0.653-0.171,1.158-0.225,1.522C258.832,172.872,258.792,173.046,258.792,173.046z"
						/>
				</g>
				<path style="fill:#263238;" d="M269.786,180.1h-32.737c-1.091,0-1.975-0.884-1.975-1.975v-0.838
					c0-1.091,0.884-1.975,1.975-1.975h32.737c1.091,0,1.975,0.884,1.975,1.975v0.838C271.761,179.216,270.877,180.1,269.786,180.1z"
					/>
				<path style="fill:#263238;" d="M269.367,182.19h-31.898c-1.322,0-2.394,1.072-2.394,2.394c0,1.322,1.072,2.394,2.394,2.394
					h3.501l4.646,8.842c0.531,1.011,1.58,1.645,2.722,1.645h11.398c1.154,0,2.211-0.646,2.737-1.673l4.514-8.813h2.38
					c1.322,0,2.394-1.072,2.394-2.394C271.761,183.262,270.689,182.19,269.367,182.19z"/>
			</g>
			<g style="opacity:0.2;">
				<path style="fill:#FFFFFF;" d="M243.52,89.953c0.184,0.77-3.029,1.91-7.359,4.802c-4.312,2.83-9.717,7.782-12.977,14.778
					c-3.241,7.008-3.534,14.333-2.912,19.454c0.586,5.173,1.789,8.363,1.082,8.719c-0.308,0.159-1.016-0.438-1.924-1.771
					c-0.911-1.329-1.949-3.433-2.767-6.215c-0.823-2.776-1.34-6.25-1.17-10.126c0.162-3.869,1.08-8.134,2.967-12.254
					c1.928-4.099,4.594-7.552,7.443-10.173c2.851-2.632,5.837-4.479,8.489-5.643c2.652-1.17,4.93-1.737,6.533-1.898
					C242.53,89.46,243.443,89.616,243.52,89.953z"/>
			</g>
			<g style="opacity:0.2;">
				<path style="fill:#FFFFFF;" d="M259.069,89.654c-0.29,1.42-2.668,2.13-5.354,2.128c-2.687-0.025-5.058-0.759-5.333-2.183
					c-0.119-0.705,0.379-1.457,1.349-2.044c0.965-0.587,2.404-0.989,4.011-0.981c1.605,0.009,3.041,0.426,3.999,1.022
					C258.705,88.193,259.195,88.951,259.069,89.654z"/>
			</g>
			<g>
				<path style="fill:#455A64;" d="M261.878,196.547c-0.038,0.079-0.84-0.288-2.191-0.675c-1.348-0.39-3.272-0.739-5.411-0.682
					c-2.14,0.066-4.04,0.526-5.363,0.993c-1.327,0.465-2.106,0.877-2.149,0.8c-0.029-0.047,0.691-0.578,2.017-1.144
					c1.319-0.568,3.272-1.102,5.48-1.17c2.208-0.06,4.188,0.361,5.538,0.851C261.155,196.009,261.905,196.498,261.878,196.547z"/>
			</g>
			<g>
				<path style="fill:#455A64;" d="M267.055,187.087c0,0.144-5.767,0.26-12.879,0.26c-7.115,0-12.88-0.117-12.88-0.26
					c0-0.144,5.766-0.26,12.88-0.26C261.288,186.826,267.055,186.943,267.055,187.087z"/>
			</g>
			<g>
				<path style="fill:#455A64;" d="M265.058,190.87c0.004,0.07-1.196,0.197-3.141,0.319c-1.945,0.122-4.635,0.234-7.607,0.276
					c-2.974,0.042-5.666,0.006-7.613-0.061c-1.947-0.067-3.15-0.16-3.148-0.231c0.001-0.073,1.206-0.11,3.152-0.137
					c2.103-0.025,4.714-0.057,7.602-0.091c2.887-0.047,5.498-0.089,7.6-0.123C263.849,190.794,265.055,190.797,265.058,190.87z"/>
			</g>
		</g>
		<g id="XMLID_110_">
			<path id="XMLID_1108_" style="fill:#455A64;" d="M299.177,91.975L299.177,91.975c-7.785,0-14.096-6.311-14.096-14.096v0
				c0-7.785,6.311-14.096,14.096-14.096l0,0c7.785,0,14.096,6.311,14.096,14.096v0C313.273,85.664,306.962,91.975,299.177,91.975z"
				/>
			<g id="XMLID_115_">
				<path id="XMLID_118_" style="fill-rule:evenodd;clip-rule:evenodd;fill:#FFFFFF;" d="M306.905,77.488
					c-0.103-4.073-3.458-7.342-7.588-7.342c-4.08,0-7.406,3.195-7.584,7.204c-0.004,0.11-0.007,0.22-0.007,0.33
					c0,1.425,0.398,2.754,1.087,3.892l-1.368,4.041l4.204-1.336c1.088,0.597,2.339,0.938,3.668,0.938
					c4.194,0,7.591-3.373,7.591-7.535C306.908,77.616,306.908,77.552,306.905,77.488z M299.317,84.013
					c-1.297,0-2.502-0.384-3.511-1.048l-2.452,0.782l0.796-2.353c-0.764-1.045-1.215-2.328-1.215-3.714
					c0-0.206,0.011-0.412,0.032-0.615c0.313-3.206,3.042-5.718,6.351-5.718c3.351,0,6.106,2.577,6.361,5.839
					c0.014,0.164,0.021,0.327,0.021,0.494C305.7,81.173,302.836,84.013,299.317,84.013z"/>
				<path id="XMLID_117_" style="fill-rule:evenodd;clip-rule:evenodd;fill:#FFFFFF;" d="M302.797,79.201
					c-0.188-0.092-1.102-0.54-1.272-0.601c-0.171-0.064-0.295-0.092-0.419,0.092c-0.124,0.185-0.483,0.601-0.59,0.721
					c-0.11,0.124-0.217,0.139-0.405,0.046c-0.185-0.092-0.785-0.284-1.496-0.917c-0.551-0.487-0.928-1.091-1.034-1.276
					c-0.107-0.185-0.011-0.284,0.082-0.377c0.085-0.085,0.185-0.217,0.281-0.323c0.025-0.032,0.046-0.061,0.067-0.089
					c0.043-0.068,0.075-0.132,0.117-0.221c0.064-0.124,0.032-0.231-0.014-0.323s-0.419-1.002-0.576-1.372
					c-0.153-0.369-0.309-0.306-0.419-0.306c-0.107,0-0.231-0.018-0.355-0.018c-0.124,0-0.327,0.046-0.498,0.231
					c-0.171,0.185-0.65,0.633-0.65,1.543c0,0.213,0.039,0.426,0.096,0.629c0.188,0.65,0.594,1.187,0.665,1.28
					c0.092,0.121,1.286,2.047,3.177,2.79c1.894,0.736,1.894,0.49,2.236,0.458c0.341-0.029,1.102-0.444,1.254-0.878
					c0.156-0.43,0.156-0.8,0.11-0.878C303.106,79.339,302.981,79.293,302.797,79.201z"/>
			</g>
		</g>
		<g>
			<path style="fill:#263238;" d="M211.387,134.325c0,0-0.272,0.13-0.813,0.36c-0.554,0.234-1.356,0.572-2.403,1.014
				c-2.112,0.893-5.217,2.232-9.173,4.051c-3.952,1.826-8.758,4.13-14.204,7.058c-5.422,2.953-11.585,6.424-17.759,11.148
				c-1.53,1.192-3.059,2.47-4.467,3.925c-0.69,0.737-1.387,1.492-1.96,2.343c-0.575,0.839-1.115,1.752-1.302,2.758
				c-0.237,1.001,0.115,2.029,0.719,2.875c0.627,0.834,1.486,1.506,2.439,2.021c1.913,1.037,4.096,1.637,6.325,2.073
				c4.479,0.847,9.224,1.06,14.088,1.049c4.87-0.021,9.88-0.314,15.002-0.776c20.491-1.912,42.764-6.342,65.708-12.454
				c22.932-6.184,44.438-13.497,63.132-22.112c4.664-2.168,9.143-4.435,13.364-6.863c4.208-2.439,8.202-5.015,11.617-8.034
				c1.683-1.519,3.259-3.155,4.298-5.063c0.519-0.948,0.859-1.985,0.863-3.026c-0.005-1.043-0.431-2.028-1.15-2.755
				c-1.466-1.46-3.516-2.143-5.449-2.648c-1.962-0.497-3.934-0.775-5.863-0.973c-3.865-0.382-7.575-0.408-11.077-0.356
				c-3.504,0.062-6.806,0.242-9.889,0.464c-6.167,0.45-11.462,1.048-15.782,1.585c-4.32,0.539-7.667,1.024-9.936,1.351
				c-1.125,0.165-1.986,0.291-2.581,0.378c-0.582,0.083-0.882,0.112-0.882,0.112s0.295-0.064,0.874-0.165
				c0.593-0.099,1.452-0.242,2.573-0.429c2.264-0.361,5.607-0.878,9.926-1.448c4.319-0.568,9.614-1.197,15.787-1.675
				c3.086-0.236,6.392-0.43,9.904-0.505c3.51-0.065,7.23-0.052,11.12,0.32c1.942,0.193,3.93,0.467,5.923,0.965
				c1.965,0.514,4.059,1.181,5.644,2.744c0.78,0.777,1.268,1.896,1.27,3.03c-0.001,1.137-0.367,2.239-0.904,3.226
				c-1.078,1.988-2.679,3.646-4.379,5.189c-3.448,3.06-7.456,5.653-11.676,8.109c-4.233,2.444-8.72,4.722-13.391,6.901
				c-18.721,8.656-40.244,15.989-63.2,22.18c-22.967,6.118-45.265,10.539-65.799,12.429c-5.133,0.457-10.156,0.743-15.043,0.756
				c-4.883,0.003-9.647-0.218-14.173-1.083c-2.253-0.447-4.466-1.055-6.445-2.132c-0.984-0.537-1.892-1.241-2.568-2.146
				c-0.32-0.463-0.586-0.968-0.737-1.511c-0.058-0.276-0.095-0.564-0.123-0.844c0.026-0.279,0.03-0.564,0.079-0.836
				c0.211-1.1,0.779-2.042,1.373-2.907c0.594-0.876,1.304-1.64,2.007-2.387c1.432-1.471,2.975-2.753,4.518-3.947
				c6.221-4.73,12.403-8.18,17.847-11.114c5.467-2.907,10.29-5.187,14.257-6.986c3.972-1.791,7.092-3.101,9.217-3.963
				c1.056-0.421,1.865-0.743,2.424-0.966C211.101,134.422,211.387,134.325,211.387,134.325z"/>
		</g>
		<g>
			<path style="fill:#263238;" d="M233.417,85.885c0,0-0.232,0.013-0.684,0.012c-0.469-0.004-1.137-0.009-2.006-0.016
				c-1.781-0.026-4.376-0.063-7.712-0.111c-6.688-0.082-16.412-0.515-28.309,0.831c-2.964,0.365-6.069,0.831-9.216,1.66
				c-1.571,0.415-3.152,0.935-4.671,1.651c-0.751,0.37-1.49,0.788-2.149,1.312c-0.655,0.522-1.232,1.17-1.52,1.945
				c-0.314,0.772-0.192,1.651,0.135,2.426c0.312,0.8,0.916,1.471,1.507,2.128c1.272,1.258,2.794,2.308,4.402,3.246
				c3.229,1.868,6.78,3.396,10.479,4.774c7.408,2.754,15.436,4.946,23.825,6.86c8.394,1.907,17.174,3.491,26.212,4.785
				c18.081,2.566,35.497,3.826,51.314,3.425c7.889-0.259,15.445-0.82,22.223-2.642c1.683-0.475,3.311-1.058,4.778-1.862
				c0.74-0.393,1.4-0.89,1.988-1.442c0.537-0.594,0.963-1.275,1.085-2.04c0.107-0.755-0.169-1.517-0.571-2.171
				c-0.419-0.653-0.948-1.229-1.507-1.76c-1.139-1.047-2.41-1.902-3.679-2.679c-5.142-3.034-10.248-4.941-14.706-6.558
				c-4.48-1.587-8.406-2.763-11.625-3.679c-3.221-0.912-5.738-1.561-7.446-1.996c-0.842-0.214-1.489-0.377-1.944-0.493
				c-0.438-0.113-0.659-0.184-0.659-0.184s0.229,0.036,0.671,0.132c0.458,0.104,1.109,0.251,1.957,0.443
				c1.717,0.403,4.244,1.02,7.476,1.903c3.23,0.887,7.168,2.036,11.667,3.599c4.478,1.595,9.6,3.477,14.8,6.517
				c1.285,0.78,2.575,1.64,3.75,2.711c0.578,0.545,1.131,1.14,1.58,1.835c0.431,0.695,0.756,1.548,0.635,2.432
				c-0.134,0.873-0.611,1.632-1.19,2.271c-0.624,0.592-1.318,1.113-2.078,1.52c-1.511,0.834-3.163,1.428-4.864,1.914
				c-6.844,1.859-14.415,2.433-22.327,2.707c-15.855,0.429-33.296-0.82-51.402-3.389c-9.05-1.296-17.842-2.885-26.251-4.803
				c-8.404-1.925-16.445-4.131-23.88-6.909c-3.713-1.39-7.279-2.931-10.543-4.829c-1.625-0.954-3.172-2.021-4.487-3.328
				c-0.616-0.688-1.248-1.388-1.594-2.269c-0.36-0.847-0.497-1.866-0.137-2.746c0.331-0.882,0.969-1.579,1.66-2.128
				c0.697-0.551,1.461-0.98,2.234-1.357c1.558-0.729,3.161-1.249,4.749-1.664c3.181-0.827,6.299-1.283,9.276-1.638
				c11.94-1.303,21.671-0.811,28.356-0.668c3.336,0.09,5.93,0.16,7.711,0.209c0.869,0.029,1.536,0.052,2.005,0.067
				C233.186,85.862,233.417,85.885,233.417,85.885z"/>
		</g>
		<g>
			<path id="XMLID_1446_" style="fill:#E8505B;" d="M156.461,190.245L156.461,190.245c-9.787-4-14.479-15.176-10.48-24.964l0,0
				c3.999-9.787,15.176-14.479,24.964-10.48l0,0c9.787,4,14.479,15.176,10.48,24.964l0,0
				C177.425,189.552,166.249,194.244,156.461,190.245z"/>
			<g id="XMLID_1_">
				<path id="XMLID_8_" style="fill:#FFFFFF;" d="M157.637,177.326c0.629,0.148,1.23,0.158,1.803,0.031
					c0.504-0.107,0.979-0.309,1.42-0.605c0.682-0.441,1.204-1.052,1.569-1.837c0.353-0.759,0.481-1.486,0.385-2.177
					c-0.097-0.692-0.425-1.318-0.986-1.877c0.55-0.021,1.003-0.115,1.36-0.285c0.635-0.301,1.142-0.855,1.518-1.663
					c0.364-0.784,0.474-1.551,0.33-2.302c-0.247-1.227-1.172-2.228-2.773-3.001l-6.394-2.971l-6.146,13.229l5.961,2.77
					C156.356,176.949,157.008,177.179,157.637,177.326z M157.441,164.162l2.878,1.337c0.634,0.294,1.123,0.605,1.467,0.933
					c0.383,0.417,0.43,0.934,0.144,1.551c-0.259,0.557-0.618,0.861-1.078,0.912c-0.459,0.052-0.977-0.055-1.551-0.322l-3.215-1.494
					L157.441,164.162z M153.429,172.796l1.639-3.527l3.256,1.513c0.566,0.27,0.971,0.549,1.218,0.839
					c0.442,0.518,0.504,1.121,0.184,1.809c-0.378,0.814-0.924,1.23-1.637,1.248c-0.391,0.007-0.874-0.123-1.447-0.389
					L153.429,172.796z"/>
				<g id="XMLID_2_">
					<path id="XMLID_5_" style="fill:#FFFFFF;" d="M163.22,179.078c0.622,1.265,1.585,2.2,2.886,2.805
						c1.578,0.733,3.026,0.828,4.343,0.283c0.842-0.337,1.432-0.779,1.77-1.327l-2.612-1.213c-0.285,0.216-0.565,0.359-0.839,0.428
						c-0.504,0.13-1.046,0.06-1.629-0.211c-0.55-0.255-0.962-0.596-1.239-1.023c-0.459-0.694-0.48-1.54-0.064-2.54l7.124,3.31
						c0.405-0.838,0.678-1.499,0.818-1.98c0.238-0.822,0.291-1.617,0.16-2.384c-0.137-0.865-0.477-1.61-1.018-2.233
						c-0.54-0.622-1.236-1.131-2.088-1.527c-1.433-0.666-2.809-0.756-4.128-0.269c-1.318,0.486-2.371,1.577-3.159,3.271
						C162.706,176.277,162.598,177.813,163.22,179.078z M168.068,173.424c0.535-0.204,1.13-0.154,1.786,0.151
						c0.604,0.281,1.028,0.692,1.273,1.232c0.244,0.541,0.232,1.162-0.037,1.862l-4.407-2.048
						C167.072,174.028,167.534,173.629,168.068,173.424z"/>
					
						<rect id="XMLID_4_" x="170.748" y="166.46" transform="matrix(0.4214 -0.9069 0.9069 0.4214 -54.6086 253.6723)" style="fill:#FFFFFF;" width="1.472" height="6.339"/>
				</g>
			</g>
		</g>
		<g id="XMLID_13_">
			<path id="XMLID_19_" style="fill:#E8505B;" d="M359.796,128.793L359.796,128.793c-9.06,0-16.405-7.345-16.405-16.405l0,0
				c0-9.06,7.345-16.405,16.405-16.405l0,0c9.06,0,16.405,7.345,16.405,16.405l0,0C376.201,121.448,368.856,128.793,359.796,128.793
				z"/>
			<path id="XMLID_18_" style="fill:#FFFFFF;" d="M351.055,117.879c1.587,1.018,3.472,1.611,5.498,1.611
				c6.659,0,10.421-5.624,10.194-10.669c0.7-0.505,1.309-1.137,1.789-1.857c-0.643,0.285-1.335,0.478-2.06,0.564
				c0.74-0.443,1.309-1.146,1.577-1.984c-0.693,0.411-1.461,0.71-2.277,0.871c-0.654-0.697-1.586-1.132-2.618-1.132
				c-2.315,0-4.016,2.16-3.493,4.404c-2.981-0.149-5.624-1.577-7.392-3.748c-0.94,1.612-0.487,3.721,1.11,4.789
				c-0.588-0.019-1.142-0.18-1.625-0.449c-0.039,1.662,1.152,3.216,2.877,3.563c-0.505,0.137-1.058,0.168-1.619,0.061
				c0.456,1.425,1.78,2.462,3.35,2.491C354.857,117.576,352.958,118.104,351.055,117.879z"/>
		</g>
		<g id="XMLID_1341_">
			<path id="XMLID_1343_" style="fill:#E8505B;" d="M209.332,93.791L209.332,93.791c-9.962,0-18.038-8.076-18.038-18.038l0,0
				c0-9.962,8.076-18.038,18.038-18.038h0c9.962,0,18.038,8.076,18.038,18.038l0,0C227.37,85.715,219.294,93.791,209.332,93.791z"/>
			<path id="XMLID_1342_" style="fill:#FFFFFF;" d="M203.559,77.429c0.281,0.115,0.534,0.005,0.616-0.307
				c0.056-0.216,0.191-0.761,0.251-0.988c0.083-0.309,0.051-0.417-0.177-0.685c-0.495-0.585-0.812-1.342-0.812-2.414
				c0-3.11,2.326-5.894,6.059-5.894c3.304,0,5.12,2.019,5.12,4.716c0,3.548-1.57,6.542-3.901,6.542c-1.288,0-2.251-1.064-1.943-2.37
				c0.371-1.559,1.087-3.242,1.087-4.367c0-1.007-0.541-1.848-1.66-1.848c-1.316,0-2.374,1.362-2.374,3.185
				c0,1.161,0.393,1.947,0.393,1.947s-1.347,5.707-1.583,6.705c-0.471,1.99-0.071,4.43-0.037,4.676
				c0.02,0.147,0.208,0.181,0.292,0.071c0.122-0.159,1.689-2.094,2.221-4.027c0.151-0.547,0.866-3.382,0.866-3.382
				c0.427,0.816,1.677,1.533,3.005,1.533c3.956,0,6.64-3.606,6.64-8.433c0-3.65-3.091-7.05-7.79-7.05
				c-5.847,0-8.795,4.192-8.795,7.687C201.039,74.845,201.841,76.728,203.559,77.429z"/>
		</g>
		<g id="XMLID_1346_">
			<path id="XMLID_1418_" style="fill:#455A64;" d="M307.918,163.934L307.918,163.934c-6.405,0-11.597-5.192-11.597-11.597l0,0
				c0-6.405,5.192-11.597,11.597-11.597h0c6.405,0,11.597,5.192,11.597,11.597l0,0C319.515,158.742,314.323,163.934,307.918,163.934
				z"/>
			<g id="XMLID_1347_">
				<path id="XMLID_1352_" style="fill:#FFFFFF;" d="M307.918,147.124c1.698,0,1.899,0.007,2.569,0.037
					c0.62,0.028,0.957,0.132,1.181,0.219c0.297,0.115,0.509,0.253,0.731,0.476c0.223,0.223,0.36,0.434,0.476,0.731
					c0.087,0.224,0.191,0.561,0.219,1.181c0.03,0.671,0.037,0.872,0.037,2.57c0,1.698-0.007,1.899-0.037,2.57
					c-0.028,0.62-0.132,0.957-0.219,1.181c-0.115,0.297-0.253,0.509-0.476,0.731c-0.223,0.223-0.434,0.36-0.731,0.476
					c-0.224,0.087-0.561,0.191-1.181,0.219c-0.67,0.03-0.871,0.037-2.569,0.037c-1.698,0-1.899-0.007-2.57-0.037
					c-0.62-0.028-0.957-0.132-1.181-0.219c-0.297-0.115-0.509-0.253-0.731-0.476c-0.222-0.223-0.36-0.434-0.476-0.731
					c-0.087-0.224-0.191-0.561-0.219-1.181c-0.03-0.671-0.037-0.872-0.037-2.57c0-1.698,0.007-1.899,0.037-2.57
					c0.028-0.62,0.132-0.957,0.219-1.181c0.115-0.297,0.253-0.508,0.476-0.731c0.223-0.223,0.434-0.36,0.731-0.476
					c0.224-0.087,0.561-0.191,1.181-0.219C306.019,147.13,306.22,147.124,307.918,147.124 M307.918,145.978
					c-1.727,0-1.944,0.007-2.622,0.038c-0.677,0.031-1.139,0.139-1.544,0.296c-0.418,0.162-0.773,0.38-1.126,0.733
					c-0.354,0.354-0.571,0.708-0.733,1.126c-0.157,0.404-0.265,0.867-0.296,1.543c-0.031,0.678-0.038,0.895-0.038,2.622
					c0,1.727,0.007,1.943,0.038,2.622c0.031,0.677,0.138,1.139,0.296,1.544c0.162,0.418,0.38,0.773,0.733,1.126
					c0.353,0.354,0.708,0.571,1.126,0.733c0.405,0.157,0.867,0.265,1.544,0.296c0.678,0.031,0.895,0.038,2.622,0.038
					c1.727,0,1.943-0.007,2.622-0.038c0.677-0.031,1.139-0.139,1.543-0.296c0.418-0.163,0.773-0.38,1.126-0.733
					c0.353-0.354,0.571-0.708,0.733-1.126c0.157-0.405,0.265-0.867,0.296-1.544c0.031-0.678,0.038-0.895,0.038-2.622
					c0-1.727-0.007-1.943-0.038-2.622c-0.031-0.677-0.138-1.139-0.296-1.543c-0.163-0.418-0.38-0.773-0.733-1.126
					c-0.354-0.354-0.708-0.571-1.126-0.733c-0.405-0.157-0.867-0.265-1.543-0.296C309.861,145.986,309.645,145.978,307.918,145.978"
					/>
				<path id="XMLID_1349_" style="fill:#FFFFFF;" d="M307.918,149.072c-1.803,0-3.265,1.462-3.265,3.265
					c0,1.803,1.462,3.265,3.265,3.265c1.803,0,3.265-1.462,3.265-3.265C311.183,150.534,309.721,149.072,307.918,149.072
					 M307.918,154.457c-1.171,0-2.12-0.949-2.12-2.12c0-1.171,0.949-2.12,2.12-2.12c1.171,0,2.12,0.949,2.12,2.12
					C310.038,153.508,309.089,154.457,307.918,154.457"/>
				<path id="XMLID_1348_" style="fill:#FFFFFF;" d="M312.075,148.943c0,0.421-0.342,0.763-0.763,0.763
					c-0.422,0-0.763-0.342-0.763-0.763c0-0.421,0.342-0.763,0.763-0.763C311.734,148.18,312.075,148.521,312.075,148.943"/>
			</g>
		</g>
		<g id="XMLID_1419_">
			<path id="XMLID_1421_" style="fill:#455A64;" d="M180.426,133.695L180.426,133.695c-5.369,0-9.722-4.353-9.722-9.722l0,0
				c0-5.369,4.353-9.722,9.722-9.722l0,0c5.369,0,9.722,4.353,9.722,9.722l0,0C190.148,129.343,185.796,133.695,180.426,133.695z"/>
			<path id="XMLID_1420_" style="fill:#FFFFFF;" d="M178.945,129.85h2.367v-5.926h1.651l0.176-1.984h-1.827c0,0,0-0.741,0-1.13
				c0-0.468,0.094-0.653,0.546-0.653c0.364,0,1.281,0,1.281,0v-2.059c0,0-1.35,0-1.639,0c-1.761,0-2.555,0.776-2.555,2.26
				c0,1.293,0,1.582,0,1.582h-1.231v2.009h1.231V129.85z"/>
		</g>
		<polygon style="fill:#E8505B;" points="327.894,83.895 328.803,85.556 330.465,86.465 328.803,87.374 327.894,89.035 
			326.986,87.374 325.324,86.465 326.986,85.556 		"/>
		<polygon style="fill:#E8505B;" points="286.768,176.044 287.677,177.706 289.339,178.615 287.677,179.523 286.768,181.185 
			285.859,179.523 284.198,178.615 285.859,177.706 		"/>
		<polygon style="fill:#E8505B;" points="149.694,127.341 151.037,129.796 153.492,131.139 151.037,132.481 149.694,134.936 
			148.352,132.481 145.897,131.139 148.352,129.796 		"/>
		<polygon style="fill:#E8505B;" points="265.058,46.457 266.401,48.912 268.856,50.255 266.401,51.598 265.058,54.053 
			263.716,51.598 261.26,50.255 263.716,48.912 		"/>
		<polygon style="fill:#E8505B;" points="337.812,151.12 339.906,154.949 343.734,157.042 339.906,159.136 337.812,162.965 
			335.718,159.136 331.89,157.042 335.718,154.949 		"/>
	</g>
</g>
<g id="Character">
	<g>
		<g>
			<g>
				<g>
					<g>
						<g>
							<g>
								<path style="fill:#263238;" d="M229.7,228.207c14.951-19.688,30.712-16.907,41.651-12.149
									c10.938,4.758,18.283,16.744,17.556,28.65c-0.192,3.144-0.864,6.455,0.415,9.334c2.057,4.631,8.042,5.935,11.508,9.631
									c4.738,5.054,3.688,13.056,2.088,19.797c-1.601,6.74-3.285,14.435,0.679,20.118c3.63,5.205,10.553,6.6,16.262,9.371
									c7.543,3.661,13.608,10.495,15.797,18.589c2.19,8.094,0.261,17.313-5.409,23.489c-5.55,6.046-13.884,8.727-22.003,9.923
									c-23.626,3.48-48.651-4.143-66.324-20.204c-17.674-16.061-27.649-40.244-26.439-64.095"/>
							</g>
						</g>
						<g>
							<g>
								<g>
									<path style="fill:#455A64;" d="M321.708,357.056c-0.045-0.047,0.515-0.486,1.355-1.517c0.837-1.019,1.974-2.666,2.659-5.09
										c0.684-2.41,0.837-5.559,0.079-9.052c-0.7-3.492-2.496-7.279-5.556-10.567c-1.525-1.638-3.332-3.169-5.409-4.46
										c-2.063-1.313-4.423-2.318-6.888-3.332c-2.461-1.02-5.065-2.043-7.534-3.568c-2.47-1.523-4.696-3.593-6.515-6.047
										c-3.691-4.902-5.629-11.32-5.779-17.92c-0.087-3.305,0.226-6.674,0.85-10.014c0.61-3.342,1.457-6.665,2.103-10.048
										c0.442-2.392,0.855-4.816,0.827-7.146c-0.057-2.348-0.7-4.613-1.572-6.777c-0.867-2.172-1.888-4.28-2.706-6.475
										c-0.793-2.248-1.144-4.532-1.409-6.777c-0.273-2.256-0.272-4.483-0.527-6.596c-0.22-2.136-0.656-4.208-1.202-6.202
										c-1.108-3.969-2.788-7.691-5.01-10.688l-0.027-0.036l-0.005-0.009c-3.738-5.913-9.899-9.186-15.446-9.96
										c-5.631-0.836-10.603,0.846-14.037,2.935c-3.5,2.105-5.621,4.612-6.873,6.38c-1.244,1.796-1.705,2.882-1.772,2.849
										c0,0,0.369-1.128,1.561-2.992c1.2-1.835,3.294-4.438,6.83-6.651c3.465-2.192,8.556-3.999,14.385-3.197
										c5.733,0.745,12.124,4.055,16.061,10.192l-0.031-0.044c2.372,3.159,4.066,6.903,5.231,10.977
										c0.569,2.038,1.022,4.156,1.255,6.339c0.27,2.197,0.275,4.401,0.549,6.596c0.263,2.199,0.623,4.446,1.373,6.551
										c0.796,2.126,1.818,4.23,2.708,6.446c0.895,2.208,1.588,4.615,1.649,7.112c0.029,2.507-0.395,4.922-0.841,7.359
										c-0.655,3.424-1.502,6.742-2.107,10.04c-0.618,3.292-0.927,6.581-0.849,9.81c0.136,6.446,2,12.655,5.543,17.403
										c1.747,2.376,3.876,4.373,6.242,5.851c2.373,1.484,4.93,2.512,7.39,3.549c2.461,1.031,4.865,2.073,6.98,3.443
										c2.125,1.344,3.967,2.934,5.518,4.633c3.111,3.405,4.92,7.344,5.582,10.927c0.723,3.58,0.51,6.815-0.252,9.272
										c-0.762,2.473-1.981,4.121-2.878,5.112C322.312,356.672,321.708,357.056,321.708,357.056z"/>
								</g>
							</g>
						</g>
					</g>
					<g>
						<g>
							<g>
								<path style="fill:#E8505B;" d="M320.791,375.507c-4.724-27.193-13.228-40.527-16.159-43.736
									c-10.218-11.193-42.504-9.515-42.504-9.515l-45.075,5.49c0,0-32.874,3.41-41.918,29.732l-6.992,31.315l36.177,1.442
									l0.713,5.971c0.875,3.21,1.984,7.026,3.195,10.125c2.026,5.184,6.826,16.115,3.975,21.185
									c-7.193,12.79-14.218,43.151-14.218,43.151l0,0l103.687-1.347l-12.363-75.466L320.791,375.507"/>
							</g>
						</g>
					</g>
					<g>
						<g>
							<g>
								<g>
									<g>
										<g>
											<g>
												<g>
													<g>
														<path style="fill:#B78876;" d="M220.677,236.019c-3.402,0.583-5.792,3.673-5.501,7.112l0,0l7.106,91.073
															c0.825,10.573,10.572,18.284,21.886,17.314l0,0c11.426-0.98,20.149-10.436,19.491-21.13
															c-0.69-11.225-1.21-23.054-1.21-23.054s14.302-3.333,16.08-22.389c0.884-9.474-0.579-24.819-2.182-37.339
															c-1.443-11.272-11.968-19.081-23.169-17.16L220.677,236.019z"/>
													</g>
												</g>
											</g>
										</g>
										<g>
											<g>
												<g>
													<g>
														<g>
															<path style="fill:#263238;" d="M270.065,258.278c0.128,1.275-0.847,2.433-2.175,2.591
																c-1.326,0.157-2.506-0.745-2.634-2.02c-0.128-1.274,0.846-2.435,2.172-2.592
																C268.757,256.099,269.938,257.004,270.065,258.278z"/>
														</g>
													</g>
												</g>
											</g>
											<g>
												<g>
													<g>
														<g>
															<g>
																<path style="fill:#263238;" d="M273.525,255.814c-0.279,0.335-2.2-0.903-4.803-0.728
																	c-2.602,0.138-4.426,1.6-4.729,1.299c-0.148-0.132,0.121-0.721,0.914-1.38c0.78-0.656,2.139-1.333,3.761-1.43
																	c1.622-0.096,3.025,0.413,3.848,0.974C273.356,255.11,273.664,255.663,273.525,255.814z"/>
															</g>
														</g>
													</g>
												</g>
											</g>
										</g>
										<g>
											<g>
												<g>
													<g>
														<g>
															<path style="fill:#263238;" d="M244.489,260.602c0.128,1.275-0.847,2.433-2.175,2.591
																c-1.326,0.157-2.507-0.745-2.634-2.02c-0.128-1.274,0.846-2.435,2.172-2.592
																C243.18,258.423,244.361,259.328,244.489,260.602z"/>
														</g>
													</g>
												</g>
											</g>
											<g>
												<g>
													<g>
														<g>
															<g>
																<path style="fill:#263238;" d="M247.969,257.951c-0.28,0.335-2.202-0.903-4.803-0.728
																	c-2.602,0.137-4.426,1.6-4.73,1.299c-0.147-0.132,0.119-0.721,0.915-1.38c0.78-0.656,2.138-1.333,3.76-1.43
																	c1.622-0.096,3.025,0.413,3.849,0.973C247.797,257.247,248.107,257.8,247.969,257.951z"/>
															</g>
														</g>
													</g>
												</g>
											</g>
										</g>
										<g>
											<g>
												<g>
													<g>
														<g>
															<path style="fill:#263238;" d="M258.662,276.646c-0.022-0.147,1.579-0.531,4.179-1.036
																c0.66-0.111,1.281-0.284,1.363-0.745c0.125-0.49-0.199-1.189-0.571-1.941c-0.729-1.568-1.492-3.212-2.293-4.935
																c-3.195-7.03-5.553-12.829-5.269-12.955c0.284-0.126,3.105,5.47,6.3,12.5c0.772,1.734,1.509,3.388,2.212,4.97
																c0.3,0.739,0.788,1.568,0.513,2.587c-0.147,0.508-0.612,0.9-1.03,1.042c-0.418,0.157-0.791,0.189-1.119,0.23
																C260.318,276.676,258.682,276.794,258.662,276.646z"/>
														</g>
													</g>
												</g>
											</g>
										</g>
										<g>
											<g>
												<g>
													<g>
														<path style="fill:#AA6550;" d="M262.449,307.334c0,0-12.637,1.637-25.697-5.108c0,0,6.965,12.562,25.729,9.578
															L262.449,307.334z"/>
													</g>
												</g>
											</g>
										</g>
									</g>
								</g>
							</g>
							<g>
								<g>
									<g>
										<g>
											<path style="fill:#263238;" d="M247.983,247.706c-0.211,0.724-2.832,0.556-5.862,1.122
												c-3.042,0.505-5.447,1.557-5.893,0.949c-0.2-0.292,0.186-0.985,1.137-1.735c0.942-0.748,2.476-1.5,4.296-1.822
												c1.82-0.319,3.518-0.136,4.659,0.245C247.471,246.844,248.071,247.363,247.983,247.706z"/>
										</g>
									</g>
								</g>
							</g>
							<g>
								<g>
									<g>
										<g>
											<path style="fill:#263238;" d="M272.082,248.342c-0.42,0.621-2.253,0.123-4.411,0.233
												c-2.162,0.035-3.956,0.654-4.417,0.063c-0.203-0.288,0.046-0.899,0.808-1.51c0.75-0.609,2.036-1.149,3.521-1.2
												c1.484-0.049,2.803,0.404,3.592,0.962C271.976,247.447,272.266,248.04,272.082,248.342z"/>
										</g>
									</g>
								</g>
							</g>
						</g>
					</g>
				</g>
			</g>
			<path style="fill:#AA6550;" d="M255.127,279.115c2.034,0.019,3.056,0.595,4.781,1.673c0.497,0.31,0.989,0.684,1.232,1.218
				c0.327,0.718,0.127,1.577-0.257,2.266c-0.84,1.508-2.598,2.475-4.315,2.304c-1.717-0.172-3.274-1.516-3.623-3.207
				C252.596,281.679,253.538,279.79,255.127,279.115"/>
			<g>
				<g>
					<path style="fill:#263238;" d="M261.534,284.221c0.031,0.197-0.65,0.5-1.785,0.432c-1.13-0.051-2.625-0.509-4.08-1.333
						c-1.453-0.832-2.593-1.859-3.262-2.736c-0.68-0.875-0.886-1.561-0.714-1.672c0.349-0.222,2.061,1.571,4.749,3.051
						c1.324,0.748,2.574,1.301,3.509,1.605C260.879,283.887,261.508,283.992,261.534,284.221z"/>
				</g>
			</g>
			<path style="fill:#263238;" d="M223.153,326.657c12.979-4.581,14.315-33.159,5.454-46.829c5.932-6.496,7.176-16.836,2.954-24.554
				c5.126-1.432,9.534-5.243,11.692-10.108c2.158-4.865,2.026-10.69-0.352-15.451c0,0-7.568-4.318-14.749-2.355
				c-7.182,1.963-12.316,7.538-15.638,21.016c-3.322,13.477-0.237,25.223-5.846,33.652c-5.609,8.429-12.619,14.716-11.778,23.631
				c0.841,8.915,6.837,27.223,6.837,27.223L223.153,326.657z"/>
			<g>
				<path style="fill:#455A64;" d="M196.51,314.334c0,0-0.461-1.318-0.714-3.814c-0.127-1.247-0.148-2.786-0.005-4.564
					c0.18-1.772,0.554-3.782,1.276-5.91c0.72-2.126,1.789-4.372,3.306-6.542c1.493-2.186,3.55-4.205,5.917-5.974
					c2.322-1.803,4.93-3.566,6.722-6.184c0.837-1.331,1.531-2.791,1.931-4.38c0.391-1.586,0.631-3.239,0.718-4.93
					c0.202-3.38,0.02-6.715,0.289-9.94c0.106-1.612,0.372-3.193,0.777-4.703c0.227-0.75,0.449-1.493,0.786-2.187
					c0.291-0.71,0.646-1.385,1.055-2.012c1.619-2.537,3.786-4.425,5.816-6.081c2.043-1.655,4.014-3.105,5.639-4.613
					c3.271-3.007,5.079-6.274,5.551-8.704c0.478-2.448-0.025-3.828,0.067-3.829c0.009-0.002,0.032,0.081,0.069,0.246
					c0.039,0.196,0.088,0.438,0.148,0.736c0.064,0.654,0.146,1.641-0.085,2.885c-0.42,2.493-2.217,5.855-5.498,8.933
					c-1.633,1.548-3.596,3.016-5.617,4.679c-2.008,1.661-4.127,3.536-5.683,6.003c-0.394,0.61-0.734,1.263-1.013,1.953
					c-0.324,0.671-0.536,1.394-0.755,2.124c-0.39,1.472-0.647,3.017-0.748,4.61c-0.26,3.181-0.075,6.511-0.278,9.931
					c-0.088,1.71-0.332,3.4-0.737,5.031c-0.414,1.635-1.135,3.154-2.01,4.535c-1.877,2.722-4.538,4.492-6.852,6.278
					c-2.362,1.751-4.368,3.701-5.857,5.843c-1.506,2.122-2.578,4.324-3.311,6.412c-0.734,2.091-1.129,4.07-1.334,5.82
					c-0.169,1.755-0.179,3.279-0.083,4.518c0.094,1.238,0.223,2.199,0.357,2.84c0.052,0.298,0.095,0.54,0.129,0.736
					C196.509,314.245,196.519,314.331,196.51,314.334z"/>
			</g>
		</g>
		<g style="opacity:0.2;">
			<path d="M282.663,443.623c-4.314,1.375-9.211,0.02-12.717-2.845s-5.734-7.064-6.93-11.432c-1.196-4.367-1.438-8.934-1.549-13.461
				c-0.335-13.671,0.467-27.343,1.374-40.988L282.663,443.623z"/>
		</g>
		<g>
			<path style="fill:#263238;" d="M214.333,422.405c-0.033,0.014-0.304-0.543-0.763-1.562c-0.46-1.019-1.109-2.501-1.881-4.345
				c-1.534-3.689-3.606-8.834-5.176-14.751c-1.576-5.918-2.144-11.487-2.026-15.497c0.047-2.006,0.209-3.623,0.379-4.731
				c0.072-0.555,0.168-0.981,0.221-1.271c0.059-0.289,0.099-0.439,0.116-0.436c0.041,0.007-0.031,0.621-0.136,1.731
				c-0.108,1.109-0.213,2.72-0.212,4.71c-0.023,3.98,0.597,9.483,2.161,15.361c1.559,5.878,3.568,11.026,5.013,14.746
				c0.705,1.799,1.288,3.284,1.727,4.405C214.159,421.809,214.366,422.392,214.333,422.405z"/>
		</g>
		<g>
			<path style="fill:#263238;" d="M259.517,378.092c0.019,0.024-0.33,0.385-1.04,0.959c-0.36,0.281-0.816,0.616-1.414,0.9
				c-0.591,0.284-1.36,0.499-2.211,0.407c-0.832-0.069-1.824-0.541-2.282-1.492c-0.447-0.929-0.56-1.941-0.83-2.977
				c-0.476-2.101-0.995-4.394-1.54-6.8c-1.078-4.829-2.026-9.207-2.687-12.381c-0.304-1.514-0.558-2.778-0.756-3.765
				c-0.167-0.891-0.243-1.388-0.208-1.396c0.035-0.008,0.178,0.474,0.406,1.352c0.24,0.977,0.549,2.229,0.917,3.729
				c0.753,3.154,1.757,7.518,2.836,12.348c0.531,2.41,1.036,4.705,1.5,6.809c0.252,1.036,0.372,2.084,0.747,2.887
				c0.375,0.814,1.183,1.227,1.941,1.321c1.568,0.193,2.736-0.635,3.462-1.105C259.094,378.372,259.492,378.06,259.517,378.092z"/>
		</g>
		<g>
			<path style="fill:#263238;" d="M252.365,354.293c-0.011-0.018,0.167-0.167,0.564-0.245c0.392-0.082,1.01-0.039,1.655,0.308
				c0.619,0.347,1.317,1.029,1.447,2.05c0.155,1.033-0.58,2.127-1.613,2.579c-1.02,0.484-2.328,0.321-3.006-0.473
				c-0.685-0.768-0.742-1.742-0.598-2.438c0.161-0.714,0.534-1.209,0.853-1.451c0.32-0.248,0.548-0.285,0.555-0.265
				c0.023,0.044-0.168,0.144-0.417,0.413c-0.25,0.263-0.529,0.731-0.628,1.368c-0.087,0.623,0.022,1.456,0.585,2.043
				c0.545,0.605,1.572,0.73,2.441,0.329c0.872-0.393,1.451-1.25,1.352-2.057c-0.074-0.81-0.631-1.439-1.158-1.782
				c-0.545-0.343-1.082-0.439-1.445-0.423C252.584,354.261,252.383,354.34,252.365,354.293z"/>
		</g>
		<g>
			<path style="fill:#263238;" d="M256.045,366.568c-0.011-0.018,0.166-0.167,0.563-0.245c0.392-0.082,1.01-0.039,1.655,0.308
				c0.619,0.347,1.317,1.029,1.447,2.05c0.155,1.033-0.58,2.127-1.613,2.579c-1.019,0.484-2.328,0.321-3.006-0.473
				c-0.686-0.768-0.742-1.742-0.598-2.438c0.16-0.714,0.533-1.209,0.853-1.451c0.32-0.248,0.548-0.285,0.555-0.264
				c0.023,0.044-0.168,0.144-0.417,0.413c-0.25,0.263-0.53,0.731-0.628,1.368c-0.087,0.622,0.022,1.456,0.585,2.043
				c0.545,0.605,1.572,0.73,2.441,0.329c0.872-0.393,1.451-1.25,1.352-2.057c-0.074-0.81-0.631-1.439-1.158-1.782
				c-0.545-0.343-1.082-0.439-1.445-0.423C256.264,366.535,256.063,366.614,256.045,366.568z"/>
		</g>
		<g>
			<path style="fill:#FAFAFA;" d="M315.578,354.078c0.013,0.143-31.676,3.116-70.771,6.639c-39.108,3.524-70.812,6.264-70.825,6.121
				c-0.013-0.143,31.67-3.115,70.778-6.639C283.855,356.676,315.565,353.935,315.578,354.078z"/>
		</g>
		<g>
			<path style="fill:#FAFAFA;" d="M316.745,359.006c0.013,0.143-32.404,3.181-72.397,6.785c-40.006,3.605-72.438,6.41-72.45,6.267
				c-0.013-0.143,32.397-3.181,72.404-6.786C284.294,361.669,316.733,358.863,316.745,359.006z"/>
		</g>
		<g>
			<path style="fill:#263238;" d="M201.622,333.813c0.035-0.009,0.206,0.537,0.487,1.534c0.286,0.995,0.65,2.45,1.053,4.257
				c0.81,3.614,1.693,8.667,2.186,14.303c0.486,5.638,0.488,10.768,0.313,14.468c-0.086,1.85-0.193,3.345-0.303,4.375
				c-0.105,1.03-0.18,1.598-0.215,1.595c-0.036-0.003-0.029-0.576,0.013-1.609c0.048-1.032,0.099-2.527,0.138-4.373
				c0.08-3.691,0.02-8.797-0.464-14.411c-0.491-5.611-1.312-10.65-2.028-14.272c-0.356-1.812-0.664-3.275-0.89-4.284
				C201.693,334.385,201.588,333.822,201.622,333.813z"/>
		</g>
		<g>
			<g>
				<path style="fill:#B78876;" d="M239.537,320.578c0,0,17.338-12.549,18.04-12.198c0.702,0.351,9.295,2.28,9.295,2.28l1.403-7.541
					c0,0-2.455-14.03,0-15.258s2.982,0,2.982,1.228c0,1.228,2.806,11.224,2.806,11.224l1.052,13.68l3.683,3.332v27.009l-16.932,4.61
					l-4.114-8.293l-0.701-5.086c0,0-3.157,1.228-3.683,0.526c-0.526-0.702-1.052-4.034-1.052-4.034l-0.702,4.735
					c0,0-4.735,1.403-5.261,0.526c-0.526-0.877,1.578-12.452,1.578-12.452l5.612-7.717c0,0-6.894,4.205-8.221,4.694
					C242.391,322.923,239.537,320.578,239.537,320.578z"/>
				<path style="fill:#B78876;" d="M261.336,348.347c0,0.987,2.629,56.03,3.221,59.976c0.592,3.946,0.941,41.234,22.372,44.097
					c0,0,10.727-0.133,11.742-0.978c0.01-0.009,0.022-0.018,0.035-0.028c11.665-8.754,19.03-22.083,19.857-36.645l2.229-39.262
					c0,0-12.299,1.594-28.249,2.975v10.307c0,0-3.716-10.383-4.308-13.281c-0.592-2.898-9.436-31.174-9.436-31.174L261.336,348.347z
					"/>
			</g>
			<g>
				<path style="fill:#AA6550;" d="M275.116,313.993c-0.025,0.002-0.079-0.354-0.159-1.023c-0.079-0.738-0.182-1.704-0.31-2.895
					c-0.241-2.569-0.573-6.1-0.966-10.289l0.003,0.024c-0.709-3.616-1.529-7.793-2.398-12.227c-0.012-0.062-0.024-0.124-0.035-0.181
					l0.219,0.208c-0.577-0.081-1.142-0.161-1.674-0.236l0.159-0.028c-1.472,0.785-2.313,2.344-2.673,3.867
					c-0.373,1.548-0.253,3.108-0.024,4.566c0.231,1.461,0.559,2.84,0.759,4.157c0.205,1.317,0.266,2.565,0.217,3.693
					c-0.087,2.263-0.566,4.039-0.965,5.219c-0.207,0.59-0.393,1.038-0.531,1.335c-0.141,0.296-0.222,0.448-0.238,0.441
					c-0.04-0.017,0.231-0.648,0.584-1.835c0.338-1.187,0.756-2.949,0.795-5.171c0.025-1.109-0.056-2.325-0.275-3.615
					c-0.214-1.293-0.558-2.665-0.808-4.149c-0.246-1.474-0.389-3.111-0.003-4.755c0.371-1.608,1.265-3.322,2.918-4.21l0.074-0.04
					l0.084,0.012c0.532,0.075,1.097,0.154,1.674,0.235l0.184,0.026l0.035,0.183c0.011,0.057,0.023,0.119,0.035,0.181
					c0.848,4.438,1.647,8.618,2.339,12.238l0.003,0.013l0.001,0.011c0.317,4.195,0.584,7.732,0.778,10.305
					c0.075,1.196,0.135,2.166,0.182,2.906C275.134,313.63,275.14,313.991,275.116,313.993z"/>
			</g>
			<g>
				<path style="fill:#AA6550;" d="M253.544,317.15c0.014,0.023-0.317,0.248-0.945,0.642c-0.628,0.393-1.554,0.956-2.734,1.649
					c-1.182,0.69-2.608,1.524-4.283,2.397c-0.415,0.209-0.852,0.461-1.389,0.572c-0.523,0.113-1.092,0.078-1.618-0.09
					c-1.061-0.338-1.99-1.023-2.792-1.896l-0.181-0.197l0.23-0.156c2.556-1.733,5.364-3.637,8.315-5.638
					c3.378-2.268,6.57-4.411,9.373-6.294l0.087-0.058l0.099,0.025c4.054,1.019,7.487,1.882,9.993,2.512
					c1.156,0.307,2.096,0.557,2.818,0.748c0.65,0.181,0.996,0.29,0.99,0.315c-0.006,0.025-0.363-0.036-1.024-0.172
					c-0.729-0.159-1.68-0.366-2.849-0.621c-2.517-0.584-5.965-1.384-10.037-2.329l0.185-0.033c-2.794,1.896-5.976,4.055-9.343,6.339
					c-2.96,1.989-5.775,3.88-8.339,5.603l0.049-0.353c0.724,0.806,1.619,1.475,2.557,1.781c0.469,0.156,0.956,0.189,1.405,0.099
					c0.443-0.081,0.867-0.308,1.291-0.515c1.674-0.837,3.12-1.639,4.32-2.292c1.15-0.628,2.086-1.14,2.799-1.53
					C253.173,317.306,253.53,317.126,253.544,317.15z"/>
			</g>
			<g>
				<path style="fill:#AA6550;" d="M252.873,328.008c0.019,0.003,0.012,0.189-0.02,0.541c-0.045,0.415-0.1,0.921-0.166,1.534
					c-0.179,1.411-0.42,3.307-0.712,5.603l-0.006,0.05l-0.035,0.045c-0.564,0.726-1.438,1.391-2.529,1.573
					c-1.093,0.175-2.251-0.132-3.267-0.777l-0.124-0.078l0.026-0.157c0.47-2.787,0.988-5.863,1.533-9.097
					c0.174-1.014,0.345-2.012,0.512-2.983l0.009-0.053l0.021-0.031c0.742-1.1,1.576-1.948,2.369-2.831
					c0.8-0.865,1.583-1.688,2.339-2.47c1.513-1.562,2.909-2.965,4.132-4.171l0.037-0.036l0.052-0.014
					c1.044-0.275,2-0.657,2.904-0.77c0.46-0.078,0.916,0.032,1.267,0.161c0.365,0.129,0.678,0.278,0.96,0.41
					c0.559,0.271,0.992,0.47,1.298,0.577c0.304,0.109,0.472,0.145,0.469,0.167c-0.001,0.046-0.715-0.039-1.851-0.553
					c-0.286-0.117-0.603-0.25-0.955-0.359c-0.361-0.111-0.729-0.191-1.146-0.108c-0.85,0.133-1.764,0.526-2.856,0.84l0.089-0.05
					c-1.201,1.251-2.566,2.673-4.06,4.229c-0.74,0.796-1.512,1.625-2.309,2.483c-0.772,0.865-1.636,1.776-2.288,2.748l0.03-0.083
					c-0.165,0.972-0.335,1.97-0.508,2.984c-0.56,3.231-1.093,6.305-1.576,9.09l-0.097-0.235c0.889,0.578,1.972,0.881,2.924,0.733
					c0.959-0.148,1.75-0.715,2.295-1.385l-0.041,0.095c0.362-2.286,0.66-4.174,0.882-5.579c0.107-0.607,0.196-1.108,0.269-1.519
					C252.809,328.186,252.854,328.005,252.873,328.008z"/>
			</g>
			<g>
				<path style="fill:#AA6550;" d="M265.602,327.938c0.001,0.036-0.608,0.091-1.717,0.16c-1.198,0.061-2.784,0.143-4.71,0.242
					l0.152-0.089c-0.559,0.927-1.393,1.819-2.473,2.575l0.101-0.184c-0.019,1.243-0.113,2.58-0.509,3.969
					c-0.108,0.345-0.224,0.691-0.449,1.042c-0.225,0.343-0.578,0.6-0.952,0.754c-0.768,0.301-1.577,0.277-2.374,0.106l-0.192-0.041
					l0-0.208c-0.001-1.009-0.002-2.068-0.003-3.145c0.003-1.944,0.006-3.826,0.009-5.613l0-0.086l0.051-0.067
					c1.687-2.181,3.236-4.184,4.578-5.919l0.06-0.077l0.093-0.004c2.479-0.092,4.538-0.169,6.076-0.226
					c0.667-0.012,1.219-0.023,1.672-0.031c0.384,0,0.587,0.009,0.588,0.03c0.001,0.021-0.2,0.052-0.582,0.091
					c-0.451,0.039-1.002,0.086-1.666,0.142c-1.535,0.102-3.591,0.24-6.067,0.404l0.153-0.08c-1.321,1.751-2.845,3.773-4.505,5.974
					l0.051-0.152c0.003,1.787,0.006,3.669,0.009,5.613c-0.001,1.077-0.002,2.135-0.003,3.145l-0.193-0.249
					c0.684,0.153,1.447,0.169,2.053-0.074c0.301-0.123,0.564-0.312,0.736-0.571c0.166-0.251,0.29-0.581,0.391-0.902
					c0.386-1.301,0.501-2.63,0.536-3.826l0.004-0.119l0.097-0.066c1.019-0.69,1.853-1.544,2.393-2.398l0.055-0.088l0.097-0.001
					c1.929-0.031,3.517-0.056,4.716-0.075C264.988,327.887,265.6,327.901,265.602,327.938z"/>
			</g>
			<g>
				<path style="fill:#AA6550;" d="M261.867,348.347c-0.047,0.039-0.68-0.611-1.508-1.817c-0.828-1.203-1.811-2.991-2.536-5.109
					c-0.72-2.121-1.033-4.137-1.112-5.595c-0.081-1.461,0.023-2.362,0.084-2.36c0.173-0.012,0.078,3.625,1.521,7.787
					C259.714,345.428,262.011,348.251,261.867,348.347z"/>
			</g>
			<g>
				<path style="fill:#AA6550;" d="M264.64,335.479c-0.116,0.102-1.051-1.423-2.984-2.061c-1.93-0.649-3.592,0.01-3.625-0.141
					c-0.026-0.058,0.342-0.309,1.034-0.48c0.683-0.173,1.708-0.222,2.756,0.127c1.047,0.349,1.837,1.003,2.28,1.551
					C264.552,335.026,264.696,335.448,264.64,335.479z"/>
			</g>
			<g>
				<path style="fill:#AA6550;" d="M265.028,328.527c0.142,0.023,0.114,1.509-0.063,3.319c-0.177,1.811-0.436,3.268-0.579,3.255
					c-0.143-0.013-0.115-1.499,0.063-3.32C264.626,329.962,264.886,328.504,265.028,328.527z"/>
			</g>
			<g>
				<path style="fill:#AA6550;" d="M302.907,433.251c-0.074-0.038,0.931-0.995,1.612-3.261c0.335-1.123,0.541-2.565,0.456-4.23
					c-0.085-1.665-0.499-3.538-1.186-5.528c-0.678-1.996-1.635-4.11-2.54-6.436c-0.947-2.308-1.866-4.808-2.856-7.43
					c-1.921-5.266-3.936-11.089-5.972-17.226c-4.052-12.286-7.472-23.485-9.883-31.61c-1.205-4.062-2.158-7.357-2.799-9.638
					c-0.305-1.11-0.547-1.988-0.724-2.631c-0.07-0.277-0.128-0.503-0.174-0.688c-0.036-0.156-0.051-0.237-0.042-0.24
					c0.009-0.003,0.04,0.074,0.093,0.225c0.06,0.181,0.134,0.402,0.224,0.674c0.2,0.636,0.473,1.505,0.818,2.603
					c0.712,2.308,1.719,5.573,2.957,9.589c2.501,8.095,5.976,19.274,10.025,31.553c2.035,6.133,4.035,11.956,5.929,17.225
					c0.976,2.623,1.878,5.126,2.806,7.435c0.884,2.324,1.824,4.452,2.488,6.478c0.671,2.02,1.068,3.931,1.128,5.633
					c0.059,1.7-0.181,3.167-0.553,4.303c-0.357,1.144-0.845,1.95-1.198,2.465C303.156,433.03,302.907,433.251,302.907,433.251z"/>
			</g>
		</g>
		<g>
			<path style="fill:#B78876;" d="M262.747,445.935l-66.736-9.954l8.309-45.747l-35.28-1.442l-8.921,50.385
				c-3.254,16.918,9.61,32.652,26.837,32.827l77.836-0.864L262.747,445.935z"/>
			<g>
				<path style="fill:#B78876;" d="M257.931,447.083c0.656,0.219,15.304-6.778,15.304-6.778l25.799,1.312
					c0,0-0.656,4.383-2.624,5.471c-1.968,1.088-13.993,0-13.993,0l6.122,4.368l10.495-0.875l2.624-2.186c0,0,0.273,7.23-1.695,8.542
					c-1.968,1.312-7.623,1.785-7.623,1.785s-0.114,2.165-0.456,3.305c-0.342,1.14-3.419,2.279-3.419,2.279s-1.937,3.989-2.735,4.9
					c-0.358,0.409-3.144,1.276-6.108,2.108c-4.787,1.343-9.856,1.311-14.62-0.111l-7.071-2.111v-21.538"/>
				<g>
					<path style="fill:#AA6550;" d="M302.101,448.515c0.008,0.011-0.101,0.097-0.319,0.252c-0.22,0.152-0.538,0.393-0.993,0.637
						c-0.889,0.518-2.271,1.177-4.137,1.601c-1.853,0.428-4.212,0.615-6.796,0.096c-1.288-0.26-2.627-0.695-3.933-1.361
						c-1.322-0.643-2.522-1.601-3.953-2.126l-1.148-0.421l1.224-0.048c1.935-0.076,3.934,0.213,5.979,0.409
						c2.035,0.192,4.193,0.268,6.233-0.374c2.428-0.719,4.459-2.815,4.557-5.162l0.244,0.263c-7.45-0.434-13.954-0.814-18.667-1.089
						c-2.28-0.153-4.123-0.277-5.461-0.367c-0.598-0.049-1.081-0.089-1.463-0.121c-0.333-0.033-0.506-0.057-0.505-0.072
						c0.001-0.015,0.176-0.021,0.511-0.018c0.383,0.009,0.869,0.021,1.469,0.036c1.34,0.053,3.186,0.126,5.469,0.217
						c4.713,0.229,11.217,0.545,18.667,0.907l0.253,0.012l-0.009,0.251c-0.048,1.292-0.64,2.548-1.53,3.524
						c-0.891,0.977-2.079,1.72-3.376,2.114c-2.16,0.678-4.383,0.585-6.439,0.387c-2.065-0.206-4.036-0.498-5.914-0.434l0.075-0.47
						c1.527,0.576,2.722,1.554,3.992,2.18c1.261,0.657,2.557,1.094,3.809,1.363c2.512,0.537,4.823,0.394,6.651,0.014
						c1.84-0.376,3.22-0.981,4.124-1.45C301.622,448.8,302.077,448.478,302.101,448.515z"/>
				</g>
				<g>
					<path style="fill:#AA6550;" d="M296.553,458.155c0.025,0.137-2.613,0.719-5.921,1.079c-3.308,0.365-6.009,0.368-6.014,0.228
						c-0.007-0.148,2.668-0.383,5.957-0.746C293.865,458.359,296.528,458.009,296.553,458.155z"/>
				</g>
				<g>
					<path style="fill:#AA6550;" d="M290.872,463.133c0.052,0.134-1.376,0.811-3.189,1.513c-1.814,0.702-3.325,1.161-3.377,1.027
						c-0.052-0.134,1.376-0.811,3.189-1.513C289.308,463.459,290.82,462.999,290.872,463.133z"/>
				</g>
			</g>
		</g>
		<g style="opacity:0.2;">
			<path d="M255.178,370.368c-0.124,1.409,1.297,2.734,2.694,2.513c1.397-0.221,2.338-1.921,1.784-3.223
				c-0.369,0.967-1.342,1.672-2.376,1.721c-1.034,0.048-2.069-0.562-2.527-1.49"/>
		</g>
		<g style="opacity:0.2;">
			<path d="M251.684,358.187c-0.124,1.409,1.297,2.734,2.694,2.513c1.397-0.221,2.338-1.921,1.784-3.223
				c-0.369,0.967-1.342,1.672-2.376,1.72c-1.034,0.048-2.069-0.562-2.527-1.49"/>
		</g>
		<g style="opacity:0.2;">
			<path d="M205.873,380.562c1.226,9.188,6.61,17.64,6.576,26.909c-0.003,0.917-0.198,2.032-1.058,2.35
				c-1.097,0.405-2.05-0.847-2.523-1.917c-3.751-8.485-5.04-18.042-3.671-27.218"/>
		</g>
		<g>
			<path style="fill:#263238;" d="M290.962,346.314c0.036-0.004,0.126,0.549,0.258,1.552c0.134,1.003,0.297,2.457,0.471,4.257
				c0.35,3.6,0.709,8.586,0.879,14.104c0.166,5.519,0.111,10.519-0.019,14.134c-0.064,1.807-0.138,3.269-0.211,4.278
				c-0.071,1.009-0.127,1.566-0.163,1.564c-0.036-0.002-0.048-0.561-0.04-1.572c0.012-1.103,0.027-2.543,0.046-4.278
				c0.036-3.612,0.033-8.601-0.133-14.11c-0.169-5.507-0.47-10.486-0.726-14.089c-0.124-1.731-0.227-3.167-0.306-4.268
				C290.948,346.878,290.926,346.318,290.962,346.314z"/>
		</g>
	</g>
</g>
</svg>
